<?xml version="1.0" encoding="UTF-8" standalone="no"?>
<!DOCTYPE svg PUBLIC "-//W3C//DTD SVG 1.1//EN"
 "http://www.w3.org/Graphics/SVG/1.1/DTD/svg11.dtd">
<!-- Generated by graphviz version 14.1.1 (20251213.1925)
 -->
<!-- Pages: 1 -->
<svg width="340pt" height="116pt"
 viewBox="0.00 0.00 340.00 116.00" xmlns="http://www.w3.org/2000/svg" xmlns:xlink="http://www.w3.org/1999/xlink">
<g id="graph0" class="graph" transform="scale(1 1) rotate(0) translate(4 112)">
<polygon fill="white" stroke="none" points="-4,4 -4,-112 336,-112 336,4 -4,4"/>
<!-- targettable.Scope_2 -->
<g id="node1" class="node">
<title>targettable.Scope_2</title>
<polygon fill="lightblue" stroke="none" points="204,-51.25 204,-73.75 324,-73.75 324,-51.25 204,-51.25"/>
<polygon fill="none" stroke="black" points="204,-51.25 204,-73.75 324,-73.75 324,-51.25 204,-51.25"/>
<text xml:space="preserve" text-anchor="start" x="207" y="-58.45" font-family="Times,serif" font-weight="bold" font-size="14.00">targettable.Scope_2</text>
<polygon fill="none" stroke="black" points="204,-28.75 204,-51.25 324,-51.25 324,-28.75 204,-28.75"/>
<text xml:space="preserve" text-anchor="start" x="207" y="-34.95" font-family="Times,serif" font-size="14.00">col1</text>
<polygon fill="none" stroke="black" points="204,-6.25 204,-28.75 324,-28.75 324,-6.25 204,-6.25"/>
<text xml:space="preserve" text-anchor="start" x="207" y="-12.45" font-family="Times,serif" font-size="14.00">col2</text>
</g>
<!-- sourcetable -->
<g id="node2" class="node">
<title>sourcetable</title>
<polygon fill="lightblue" stroke="none" points="8,-78.75 8,-101.25 80,-101.25 80,-78.75 8,-78.75"/>
<polygon fill="none" stroke="black" points="8,-78.75 8,-101.25 80,-101.25 80,-78.75 8,-78.75"/>
<text xml:space="preserve" text-anchor="start" x="11" y="-85.95" font-family="Times,serif" font-weight="bold" font-size="14.00">sourcetable</text>
</g>
<!-- sourcetable&#45;&gt;targettable.Scope_2 -->
<g id="edge1" class="edge">
<title>sourcetable&#45;&gt;targettable.Scope_2</title>
<path fill="none" stroke="black" d="M87.81,-80.18C115.55,-73.82 152.49,-65.35 185.3,-57.82"/>
<polygon fill="black" stroke="black" points="185.81,-61.29 194.78,-55.65 184.25,-54.47 185.81,-61.29"/>
</g>
<!-- targettable -->
<g id="node3" class="node">
<title>targettable</title>
<text xml:space="preserve" text-anchor="middle" x="44" y="-12.95" font-family="Times,serif" font-size="14.00">targettable</text>
</g>
<!-- targettable&#45;&gt;targettable.Scope_2 -->
<g id="edge2" class="edge">
<title>targettable:col1&#45;&gt;targettable.Scope_2:col1</title>
<path fill="none" stroke="blue" d="M80.26,-25.76C109.35,-31.53 152.12,-38.62 191.67,-39.82"/>
<polygon fill="blue" stroke="blue" points="191.43,-43.32 201.49,-39.98 191.54,-36.32 191.43,-43.32"/>
</g>
<!-- targettable&#45;&gt;targettable.Scope_2 -->
<g id="edge3" class="edge">
<title>targettable:col2&#45;&gt;targettable.Scope_2:col2</title>
<path fill="none" stroke="blue" d="M80.45,-17.82C109.6,-17.69 152.33,-17.53 191.51,-17.5"/>
<polygon fill="blue" stroke="blue" points="191.49,-21 201.49,-17.5 191.49,-14 191.49,-21"/>
</g>
</g>
</svg>
