<?xml version="1.0" encoding="UTF-8" standalone="no"?>
<!DOCTYPE svg PUBLIC "-//W3C//DTD SVG 1.1//EN"
 "http://www.w3.org/Graphics/SVG/1.1/DTD/svg11.dtd">
<!-- Generated by graphviz version 14.1.1 (20251213.1925)
 -->
<!-- Pages: 1 -->
<svg width="1758pt" height="1466pt"
 viewBox="0.00 0.00 1758.00 1466.00" xmlns="http://www.w3.org/2000/svg" xmlns:xlink="http://www.w3.org/1999/xlink">
<g id="graph0" class="graph" transform="scale(1 1) rotate(0) translate(4 1462)">
<polygon fill="white" stroke="none" points="-4,4 -4,-1462 1754.25,-1462 1754.25,4 -4,4"/>
<!-- Scope_1 -->
<g id="node1" class="node">
<title>Scope_1</title>
<polygon fill="lightblue" stroke="none" points="8,-1027.75 8,-1050.25 101,-1050.25 101,-1027.75 8,-1027.75"/>
<polygon fill="none" stroke="black" points="8,-1027.75 8,-1050.25 101,-1050.25 101,-1027.75 8,-1027.75"/>
<text xml:space="preserve" text-anchor="start" x="30.88" y="-1034.95" font-family="Times,serif" font-weight="bold" font-size="14.00">Scope_1</text>
<polygon fill="none" stroke="black" points="8,-1005.25 8,-1027.75 101,-1027.75 101,-1005.25 8,-1005.25"/>
<text xml:space="preserve" text-anchor="start" x="11" y="-1011.45" font-family="Times,serif" font-size="14.00">customer_id</text>
<polygon fill="none" stroke="black" points="8,-982.75 8,-1005.25 101,-1005.25 101,-982.75 8,-982.75"/>
<text xml:space="preserve" text-anchor="start" x="11" y="-988.95" font-family="Times,serif" font-size="14.00">customer_name</text>
<polygon fill="none" stroke="black" points="8,-960.25 8,-982.75 101,-982.75 101,-960.25 8,-960.25"/>
<text xml:space="preserve" text-anchor="start" x="11" y="-966.45" font-family="Times,serif" font-size="14.00">country</text>
<polygon fill="none" stroke="black" points="8,-937.75 8,-960.25 101,-960.25 101,-937.75 8,-937.75"/>
<text xml:space="preserve" text-anchor="start" x="11" y="-943.95" font-family="Times,serif" font-size="14.00">signup_date</text>
</g>
<!-- customer_segmented -->
<g id="node8" class="node">
<title>customer_segmented</title>
<polygon fill="lightblue" stroke="none" points="225,-934.5 225,-957 353.25,-957 353.25,-934.5 225,-934.5"/>
<polygon fill="none" stroke="black" points="225,-934.5 225,-957 353.25,-957 353.25,-934.5 225,-934.5"/>
<text xml:space="preserve" text-anchor="start" x="228" y="-941.7" font-family="Times,serif" font-weight="bold" font-size="14.00">customer_segmented</text>
<polygon fill="none" stroke="black" points="225,-912 225,-934.5 353.25,-934.5 353.25,-912 225,-912"/>
<text xml:space="preserve" text-anchor="start" x="228" y="-918.2" font-family="Times,serif" font-size="14.00">customer_id</text>
<polygon fill="none" stroke="black" points="225,-889.5 225,-912 353.25,-912 353.25,-889.5 225,-889.5"/>
<text xml:space="preserve" text-anchor="start" x="228" y="-895.7" font-family="Times,serif" font-size="14.00">customer_name</text>
<polygon fill="none" stroke="black" points="225,-867 225,-889.5 353.25,-889.5 353.25,-867 225,-867"/>
<text xml:space="preserve" text-anchor="start" x="228" y="-873.2" font-family="Times,serif" font-size="14.00">country</text>
<polygon fill="none" stroke="black" points="225,-844.5 225,-867 353.25,-867 353.25,-844.5 225,-844.5"/>
<text xml:space="preserve" text-anchor="start" x="228" y="-850.7" font-family="Times,serif" font-size="14.00">signup_date</text>
<polygon fill="none" stroke="black" points="225,-822 225,-844.5 353.25,-844.5 353.25,-822 225,-822"/>
<text xml:space="preserve" text-anchor="start" x="228" y="-828.2" font-family="Times,serif" font-size="14.00">total_orders</text>
<polygon fill="none" stroke="black" points="225,-799.5 225,-822 353.25,-822 353.25,-799.5 225,-799.5"/>
<text xml:space="preserve" text-anchor="start" x="228" y="-805.7" font-family="Times,serif" font-size="14.00">total_revenue</text>
<polygon fill="none" stroke="black" points="225,-777 225,-799.5 353.25,-799.5 353.25,-777 225,-777"/>
<text xml:space="preserve" text-anchor="start" x="228" y="-783.2" font-family="Times,serif" font-size="14.00">avg_order_value</text>
<polygon fill="none" stroke="black" points="225,-754.5 225,-777 353.25,-777 353.25,-754.5 225,-754.5"/>
<text xml:space="preserve" text-anchor="start" x="228" y="-760.7" font-family="Times,serif" font-size="14.00">first_order_date</text>
<polygon fill="none" stroke="black" points="225,-732 225,-754.5 353.25,-754.5 353.25,-732 225,-732"/>
<text xml:space="preserve" text-anchor="start" x="228" y="-738.2" font-family="Times,serif" font-size="14.00">last_order_date</text>
<polygon fill="none" stroke="black" points="225,-709.5 225,-732 353.25,-732 353.25,-709.5 225,-709.5"/>
<text xml:space="preserve" text-anchor="start" x="228" y="-715.7" font-family="Times,serif" font-size="14.00">days_since_last_order</text>
<polygon fill="none" stroke="black" points="225,-687 225,-709.5 353.25,-709.5 353.25,-687 225,-687"/>
<text xml:space="preserve" text-anchor="start" x="228" y="-693.2" font-family="Times,serif" font-size="14.00">customer_segment</text>
</g>
<!-- Scope_1&#45;&gt;customer_segmented -->
<g id="edge75" class="edge">
<title>Scope_1:customer_id&#45;&gt;customer_segmented:customer_id</title>
<path fill="none" stroke="blue" d="M102,-1016.5C166.25,-1016.5 157.17,-933.86 212.82,-924.17"/>
<polygon fill="blue" stroke="blue" points="212.81,-927.69 222.49,-923.37 212.24,-920.71 212.81,-927.69"/>
</g>
<!-- Scope_1&#45;&gt;customer_segmented -->
<g id="edge76" class="edge">
<title>Scope_1:customer_name&#45;&gt;customer_segmented:customer_name</title>
<path fill="none" stroke="blue" d="M102,-994C166.25,-994 157.17,-911.36 212.82,-901.67"/>
<polygon fill="blue" stroke="blue" points="212.81,-905.19 222.49,-900.87 212.24,-898.21 212.81,-905.19"/>
</g>
<!-- Scope_1&#45;&gt;customer_segmented -->
<g id="edge77" class="edge">
<title>Scope_1:country&#45;&gt;customer_segmented:country</title>
<path fill="none" stroke="blue" d="M102,-971.5C166.25,-971.5 157.17,-888.86 212.82,-879.17"/>
<polygon fill="blue" stroke="blue" points="212.81,-882.69 222.49,-878.37 212.24,-875.71 212.81,-882.69"/>
</g>
<!-- Scope_1&#45;&gt;customer_segmented -->
<g id="edge78" class="edge">
<title>Scope_1:signup_date&#45;&gt;customer_segmented:signup_date</title>
<path fill="none" stroke="blue" d="M102,-949C166.25,-949 157.17,-866.36 212.82,-856.67"/>
<polygon fill="blue" stroke="blue" points="212.81,-860.19 222.49,-855.87 212.24,-853.21 212.81,-860.19"/>
</g>
<!-- cleaned_orders -->
<g id="node2" class="node">
<title>cleaned_orders</title>
<polygon fill="lightblue" stroke="none" points="1648.5,-687 1648.5,-709.5 1742.25,-709.5 1742.25,-687 1648.5,-687"/>
<polygon fill="none" stroke="black" points="1648.5,-687 1648.5,-709.5 1742.25,-709.5 1742.25,-687 1648.5,-687"/>
<text xml:space="preserve" text-anchor="start" x="1651.5" y="-694.2" font-family="Times,serif" font-weight="bold" font-size="14.00">cleaned_orders</text>
<polygon fill="none" stroke="black" points="1648.5,-664.5 1648.5,-687 1742.25,-687 1742.25,-664.5 1648.5,-664.5"/>
<text xml:space="preserve" text-anchor="start" x="1651.5" y="-670.7" font-family="Times,serif" font-size="14.00">order_id</text>
<polygon fill="none" stroke="black" points="1648.5,-642 1648.5,-664.5 1742.25,-664.5 1742.25,-642 1648.5,-642"/>
<text xml:space="preserve" text-anchor="start" x="1651.5" y="-648.2" font-family="Times,serif" font-size="14.00">customer_id</text>
<polygon fill="none" stroke="black" points="1648.5,-619.5 1648.5,-642 1742.25,-642 1742.25,-619.5 1648.5,-619.5"/>
<text xml:space="preserve" text-anchor="start" x="1651.5" y="-625.7" font-family="Times,serif" font-size="14.00">order_date</text>
<polygon fill="none" stroke="black" points="1648.5,-597 1648.5,-619.5 1742.25,-619.5 1742.25,-597 1648.5,-597"/>
<text xml:space="preserve" text-anchor="start" x="1651.5" y="-603.2" font-family="Times,serif" font-size="14.00">amount</text>
<polygon fill="none" stroke="black" points="1648.5,-574.5 1648.5,-597 1742.25,-597 1742.25,-574.5 1648.5,-574.5"/>
<text xml:space="preserve" text-anchor="start" x="1651.5" y="-580.7" font-family="Times,serif" font-size="14.00">order_status</text>
</g>
<!-- cleaned_orders&#45;&gt;Scope_1 -->
<g id="edge1" class="edge">
<title>cleaned_orders&#45;&gt;Scope_1</title>
<path fill="none" stroke="black" d="M1689.37,-713.34C1671.18,-912.17 1590.54,-1458 1253.38,-1458 539.25,-1458 539.25,-1458 539.25,-1458 383.97,-1458 330.02,-1429.48 217,-1323 141.67,-1252.03 96.87,-1138.44 74.21,-1065.03"/>
<polygon fill="black" stroke="black" points="77.58,-1064.06 71.34,-1055.5 70.88,-1066.08 77.58,-1064.06"/>
</g>
<!-- valid_orders -->
<g id="node3" class="node">
<title>valid_orders</title>
<polygon fill="lightblue" stroke="none" points="1445.75,-687 1445.75,-709.5 1524.5,-709.5 1524.5,-687 1445.75,-687"/>
<polygon fill="none" stroke="black" points="1445.75,-687 1445.75,-709.5 1524.5,-709.5 1524.5,-687 1445.75,-687"/>
<text xml:space="preserve" text-anchor="start" x="1448.75" y="-694.2" font-family="Times,serif" font-weight="bold" font-size="14.00">valid_orders</text>
<polygon fill="none" stroke="black" points="1445.75,-664.5 1445.75,-687 1524.5,-687 1524.5,-664.5 1445.75,-664.5"/>
<text xml:space="preserve" text-anchor="start" x="1448.75" y="-670.7" font-family="Times,serif" font-size="14.00">order_id</text>
<polygon fill="none" stroke="black" points="1445.75,-642 1445.75,-664.5 1524.5,-664.5 1524.5,-642 1445.75,-642"/>
<text xml:space="preserve" text-anchor="start" x="1448.75" y="-648.2" font-family="Times,serif" font-size="14.00">customer_id</text>
<polygon fill="none" stroke="black" points="1445.75,-619.5 1445.75,-642 1524.5,-642 1524.5,-619.5 1445.75,-619.5"/>
<text xml:space="preserve" text-anchor="start" x="1448.75" y="-625.7" font-family="Times,serif" font-size="14.00">order_date</text>
<polygon fill="none" stroke="black" points="1445.75,-597 1445.75,-619.5 1524.5,-619.5 1524.5,-597 1445.75,-597"/>
<text xml:space="preserve" text-anchor="start" x="1448.75" y="-603.2" font-family="Times,serif" font-size="14.00">amount</text>
<polygon fill="none" stroke="black" points="1445.75,-574.5 1445.75,-597 1524.5,-597 1524.5,-574.5 1445.75,-574.5"/>
<text xml:space="preserve" text-anchor="start" x="1448.75" y="-580.7" font-family="Times,serif" font-size="14.00">order_status</text>
</g>
<!-- cleaned_orders&#45;&gt;valid_orders -->
<g id="edge15" class="edge">
<title>cleaned_orders&#45;&gt;valid_orders</title>
<path fill="none" stroke="black" d="M1640.56,-642C1610.82,-642 1573.89,-642 1543.6,-642"/>
<polygon fill="black" stroke="black" points="1543.86,-638.5 1533.86,-642 1543.86,-645.5 1543.86,-638.5"/>
</g>
<!-- orders_with_payments -->
<g id="node4" class="node">
<title>orders_with_payments</title>
<polygon fill="lightblue" stroke="none" points="1183,-751 1183,-773.5 1321.75,-773.5 1321.75,-751 1183,-751"/>
<polygon fill="none" stroke="black" points="1183,-751 1183,-773.5 1321.75,-773.5 1321.75,-751 1183,-751"/>
<text xml:space="preserve" text-anchor="start" x="1186" y="-758.2" font-family="Times,serif" font-weight="bold" font-size="14.00">orders_with_payments</text>
<polygon fill="none" stroke="black" points="1183,-728.5 1183,-751 1321.75,-751 1321.75,-728.5 1183,-728.5"/>
<text xml:space="preserve" text-anchor="start" x="1186" y="-734.7" font-family="Times,serif" font-size="14.00">order_id</text>
<polygon fill="none" stroke="black" points="1183,-706 1183,-728.5 1321.75,-728.5 1321.75,-706 1183,-706"/>
<text xml:space="preserve" text-anchor="start" x="1186" y="-712.2" font-family="Times,serif" font-size="14.00">customer_id</text>
<polygon fill="none" stroke="black" points="1183,-683.5 1183,-706 1321.75,-706 1321.75,-683.5 1183,-683.5"/>
<text xml:space="preserve" text-anchor="start" x="1186" y="-689.7" font-family="Times,serif" font-size="14.00">order_date</text>
<polygon fill="none" stroke="black" points="1183,-661 1183,-683.5 1321.75,-683.5 1321.75,-661 1183,-661"/>
<text xml:space="preserve" text-anchor="start" x="1186" y="-667.2" font-family="Times,serif" font-size="14.00">amount</text>
<polygon fill="none" stroke="black" points="1183,-638.5 1183,-661 1321.75,-661 1321.75,-638.5 1183,-638.5"/>
<text xml:space="preserve" text-anchor="start" x="1186" y="-644.7" font-family="Times,serif" font-size="14.00">payment_status</text>
</g>
<!-- cleaned_orders&#45;&gt;orders_with_payments -->
<g id="edge20" class="edge">
<title>cleaned_orders&#45;&gt;orders_with_payments</title>
<path fill="none" stroke="black" d="M1640.79,-680.89C1610.6,-700.39 1571.25,-721.95 1532.5,-732 1469.69,-748.29 1396.6,-740.56 1340.98,-729.41"/>
<polygon fill="black" stroke="black" points="1341.72,-725.99 1331.22,-727.38 1340.29,-732.84 1341.72,-725.99"/>
</g>
<!-- paid_orders -->
<g id="node5" class="node">
<title>paid_orders</title>
<polygon fill="lightblue" stroke="none" points="981.38,-866.75 981.38,-889.25 1057.12,-889.25 1057.12,-866.75 981.38,-866.75"/>
<polygon fill="none" stroke="black" points="981.38,-866.75 981.38,-889.25 1057.12,-889.25 1057.12,-866.75 981.38,-866.75"/>
<text xml:space="preserve" text-anchor="start" x="984.38" y="-873.95" font-family="Times,serif" font-weight="bold" font-size="14.00">paid_orders</text>
<polygon fill="none" stroke="black" points="981.38,-844.25 981.38,-866.75 1057.12,-866.75 1057.12,-844.25 981.38,-844.25"/>
<text xml:space="preserve" text-anchor="start" x="984.38" y="-850.45" font-family="Times,serif" font-size="14.00">order_id</text>
<polygon fill="none" stroke="black" points="981.38,-821.75 981.38,-844.25 1057.12,-844.25 1057.12,-821.75 981.38,-821.75"/>
<text xml:space="preserve" text-anchor="start" x="984.38" y="-827.95" font-family="Times,serif" font-size="14.00">customer_id</text>
<polygon fill="none" stroke="black" points="981.38,-799.25 981.38,-821.75 1057.12,-821.75 1057.12,-799.25 981.38,-799.25"/>
<text xml:space="preserve" text-anchor="start" x="984.38" y="-805.45" font-family="Times,serif" font-size="14.00">order_date</text>
<polygon fill="none" stroke="black" points="981.38,-776.75 981.38,-799.25 1057.12,-799.25 1057.12,-776.75 981.38,-776.75"/>
<text xml:space="preserve" text-anchor="start" x="984.38" y="-782.95" font-family="Times,serif" font-size="14.00">amount</text>
</g>
<!-- cleaned_orders&#45;&gt;paid_orders -->
<g id="edge28" class="edge">
<title>cleaned_orders&#45;&gt;paid_orders</title>
<path fill="none" stroke="black" d="M1640.73,-603.54C1610.52,-584.25 1571.17,-562.93 1532.5,-553 1376.16,-512.85 1308.76,-526.66 1175,-617 1121.29,-653.28 1079.92,-714.8 1053.52,-762.93"/>
<polygon fill="black" stroke="black" points="1050.49,-761.18 1048.84,-771.65 1056.65,-764.5 1050.49,-761.18"/>
</g>
<!-- customer_aggregates -->
<g id="node6" class="node">
<title>customer_aggregates</title>
<polygon fill="lightblue" stroke="none" points="727.25,-889.25 727.25,-911.75 855.5,-911.75 855.5,-889.25 727.25,-889.25"/>
<polygon fill="none" stroke="black" points="727.25,-889.25 727.25,-911.75 855.5,-911.75 855.5,-889.25 727.25,-889.25"/>
<text xml:space="preserve" text-anchor="start" x="730.25" y="-896.45" font-family="Times,serif" font-weight="bold" font-size="14.00">customer_aggregates</text>
<polygon fill="none" stroke="black" points="727.25,-866.75 727.25,-889.25 855.5,-889.25 855.5,-866.75 727.25,-866.75"/>
<text xml:space="preserve" text-anchor="start" x="730.25" y="-872.95" font-family="Times,serif" font-size="14.00">customer_id</text>
<polygon fill="none" stroke="black" points="727.25,-844.25 727.25,-866.75 855.5,-866.75 855.5,-844.25 727.25,-844.25"/>
<text xml:space="preserve" text-anchor="start" x="730.25" y="-850.45" font-family="Times,serif" font-size="14.00">total_orders</text>
<polygon fill="none" stroke="black" points="727.25,-821.75 727.25,-844.25 855.5,-844.25 855.5,-821.75 727.25,-821.75"/>
<text xml:space="preserve" text-anchor="start" x="730.25" y="-827.95" font-family="Times,serif" font-size="14.00">total_revenue</text>
<polygon fill="none" stroke="black" points="727.25,-799.25 727.25,-821.75 855.5,-821.75 855.5,-799.25 727.25,-799.25"/>
<text xml:space="preserve" text-anchor="start" x="730.25" y="-805.45" font-family="Times,serif" font-size="14.00">avg_order_value</text>
<polygon fill="none" stroke="black" points="727.25,-776.75 727.25,-799.25 855.5,-799.25 855.5,-776.75 727.25,-776.75"/>
<text xml:space="preserve" text-anchor="start" x="730.25" y="-782.95" font-family="Times,serif" font-size="14.00">first_order_date</text>
<polygon fill="none" stroke="black" points="727.25,-754.25 727.25,-776.75 855.5,-776.75 855.5,-754.25 727.25,-754.25"/>
<text xml:space="preserve" text-anchor="start" x="730.25" y="-760.45" font-family="Times,serif" font-size="14.00">last_order_date</text>
</g>
<!-- cleaned_orders&#45;&gt;customer_aggregates -->
<g id="edge37" class="edge">
<title>cleaned_orders&#45;&gt;customer_aggregates</title>
<path fill="none" stroke="black" d="M1640.76,-591.89C1611.16,-567.42 1572.39,-540.25 1532.5,-526 967.72,-324.27 1054.78,-445.95 971.5,-496 884.13,-548.51 837.08,-659.61 813.44,-739.92"/>
<polygon fill="black" stroke="black" points="810.21,-738.51 810.82,-749.09 816.94,-740.44 810.21,-738.51"/>
</g>
<!-- customer_enriched -->
<g id="node7" class="node">
<title>customer_enriched</title>
<polygon fill="lightblue" stroke="none" points="477.25,-934.25 477.25,-956.75 603.25,-956.75 603.25,-934.25 477.25,-934.25"/>
<polygon fill="none" stroke="black" points="477.25,-934.25 477.25,-956.75 603.25,-956.75 603.25,-934.25 477.25,-934.25"/>
<text xml:space="preserve" text-anchor="start" x="484.75" y="-941.45" font-family="Times,serif" font-weight="bold" font-size="14.00">customer_enriched</text>
<polygon fill="none" stroke="black" points="477.25,-911.75 477.25,-934.25 603.25,-934.25 603.25,-911.75 477.25,-911.75"/>
<text xml:space="preserve" text-anchor="start" x="480.25" y="-917.95" font-family="Times,serif" font-size="14.00">customer_id</text>
<polygon fill="none" stroke="black" points="477.25,-889.25 477.25,-911.75 603.25,-911.75 603.25,-889.25 477.25,-889.25"/>
<text xml:space="preserve" text-anchor="start" x="480.25" y="-895.45" font-family="Times,serif" font-size="14.00">customer_name</text>
<polygon fill="none" stroke="black" points="477.25,-866.75 477.25,-889.25 603.25,-889.25 603.25,-866.75 477.25,-866.75"/>
<text xml:space="preserve" text-anchor="start" x="480.25" y="-872.95" font-family="Times,serif" font-size="14.00">country</text>
<polygon fill="none" stroke="black" points="477.25,-844.25 477.25,-866.75 603.25,-866.75 603.25,-844.25 477.25,-844.25"/>
<text xml:space="preserve" text-anchor="start" x="480.25" y="-850.45" font-family="Times,serif" font-size="14.00">signup_date</text>
<polygon fill="none" stroke="black" points="477.25,-821.75 477.25,-844.25 603.25,-844.25 603.25,-821.75 477.25,-821.75"/>
<text xml:space="preserve" text-anchor="start" x="480.25" y="-827.95" font-family="Times,serif" font-size="14.00">total_orders</text>
<polygon fill="none" stroke="black" points="477.25,-799.25 477.25,-821.75 603.25,-821.75 603.25,-799.25 477.25,-799.25"/>
<text xml:space="preserve" text-anchor="start" x="480.25" y="-805.45" font-family="Times,serif" font-size="14.00">total_revenue</text>
<polygon fill="none" stroke="black" points="477.25,-776.75 477.25,-799.25 603.25,-799.25 603.25,-776.75 477.25,-776.75"/>
<text xml:space="preserve" text-anchor="start" x="480.25" y="-782.95" font-family="Times,serif" font-size="14.00">avg_order_value</text>
<polygon fill="none" stroke="black" points="477.25,-754.25 477.25,-776.75 603.25,-776.75 603.25,-754.25 477.25,-754.25"/>
<text xml:space="preserve" text-anchor="start" x="480.25" y="-760.45" font-family="Times,serif" font-size="14.00">first_order_date</text>
<polygon fill="none" stroke="black" points="477.25,-731.75 477.25,-754.25 603.25,-754.25 603.25,-731.75 477.25,-731.75"/>
<text xml:space="preserve" text-anchor="start" x="480.25" y="-737.95" font-family="Times,serif" font-size="14.00">last_order_date</text>
<polygon fill="none" stroke="black" points="477.25,-709.25 477.25,-731.75 603.25,-731.75 603.25,-709.25 477.25,-709.25"/>
<text xml:space="preserve" text-anchor="start" x="480.25" y="-715.45" font-family="Times,serif" font-size="14.00">days_since_last_order</text>
</g>
<!-- cleaned_orders&#45;&gt;customer_enriched -->
<g id="edge48" class="edge">
<title>cleaned_orders&#45;&gt;customer_enriched</title>
<path fill="none" stroke="black" d="M1667.38,-570.59C1611.89,-437.52 1471.61,-165 1253.38,-165 1018.25,-165 1018.25,-165 1018.25,-165 760.38,-165 628.74,-498.76 573.71,-694.44"/>
<polygon fill="black" stroke="black" points="570.38,-693.36 571.08,-703.93 577.12,-695.23 570.38,-693.36"/>
</g>
<!-- cleaned_orders&#45;&gt;customer_segmented -->
<g id="edge68" class="edge">
<title>cleaned_orders&#45;&gt;customer_segmented</title>
<path fill="none" stroke="black" d="M1681.81,-570.81C1663.04,-482.78 1620.08,-332.77 1532.5,-236 1438.7,-132.35 1393.17,-91 1253.38,-91 790.38,-91 790.38,-91 790.38,-91 511.31,-91 376.51,-458.32 321.68,-672.2"/>
<polygon fill="black" stroke="black" points="318.32,-671.19 319.26,-681.75 325.11,-672.91 318.32,-671.19"/>
</g>
<!-- valid_orders&#45;&gt;Scope_1 -->
<g id="edge2" class="edge">
<title>valid_orders&#45;&gt;Scope_1</title>
<path fill="none" stroke="black" d="M1474.16,-713.48C1443.8,-899.45 1334.54,-1384 1020.25,-1384 539.25,-1384 539.25,-1384 539.25,-1384 382.74,-1384 336.27,-1343.34 217,-1242 159.62,-1193.24 115.01,-1119.03 87.35,-1064.49"/>
<polygon fill="black" stroke="black" points="90.49,-1062.94 82.89,-1055.56 84.23,-1066.07 90.49,-1062.94"/>
</g>
<!-- valid_orders&#45;&gt;cleaned_orders -->
<g id="edge10" class="edge">
<title>valid_orders:order_id&#45;&gt;cleaned_orders:order_id</title>
<path fill="none" stroke="blue" d="M1525.5,-675.75C1575.7,-675.75 1591.04,-675.75 1636.07,-675.75"/>
<polygon fill="blue" stroke="blue" points="1635.99,-679.25 1645.99,-675.75 1635.99,-672.25 1635.99,-679.25"/>
</g>
<!-- valid_orders&#45;&gt;cleaned_orders -->
<g id="edge11" class="edge">
<title>valid_orders:customer_id&#45;&gt;cleaned_orders:customer_id</title>
<path fill="none" stroke="blue" d="M1525.5,-653.25C1575.7,-653.25 1591.04,-653.25 1636.07,-653.25"/>
<polygon fill="blue" stroke="blue" points="1635.99,-656.75 1645.99,-653.25 1635.99,-649.75 1635.99,-656.75"/>
</g>
<!-- valid_orders&#45;&gt;cleaned_orders -->
<g id="edge12" class="edge">
<title>valid_orders:order_date&#45;&gt;cleaned_orders:order_date</title>
<path fill="none" stroke="blue" d="M1525.5,-630.75C1575.7,-630.75 1591.04,-630.75 1636.07,-630.75"/>
<polygon fill="blue" stroke="blue" points="1635.99,-634.25 1645.99,-630.75 1635.99,-627.25 1635.99,-634.25"/>
</g>
<!-- valid_orders&#45;&gt;cleaned_orders -->
<g id="edge13" class="edge">
<title>valid_orders:amount&#45;&gt;cleaned_orders:amount</title>
<path fill="none" stroke="blue" d="M1525.5,-608.25C1575.7,-608.25 1591.04,-608.25 1636.07,-608.25"/>
<polygon fill="blue" stroke="blue" points="1635.99,-611.75 1645.99,-608.25 1635.99,-604.75 1635.99,-611.75"/>
</g>
<!-- valid_orders&#45;&gt;cleaned_orders -->
<g id="edge14" class="edge">
<title>valid_orders:order_status&#45;&gt;cleaned_orders:order_status</title>
<path fill="none" stroke="blue" d="M1525.5,-585.75C1575.7,-585.75 1591.04,-585.75 1636.07,-585.75"/>
<polygon fill="blue" stroke="blue" points="1635.99,-589.25 1645.99,-585.75 1635.99,-582.25 1635.99,-589.25"/>
</g>
<!-- valid_orders&#45;&gt;orders_with_payments -->
<g id="edge21" class="edge">
<title>valid_orders&#45;&gt;orders_with_payments</title>
<path fill="none" stroke="black" d="M1437.96,-643.75C1410,-649.24 1373.43,-658.69 1340.22,-668.79"/>
<polygon fill="black" stroke="black" points="1339.53,-665.34 1331.02,-671.64 1341.6,-672.02 1339.53,-665.34"/>
</g>
<!-- valid_orders&#45;&gt;orders_with_payments -->
<g id="edge22" class="edge">
<title>valid_orders&#45;&gt;orders_with_payments</title>
<path fill="none" stroke="black" d="M1437.96,-665.86C1410.12,-675.84 1373.74,-686.62 1340.65,-694.93"/>
<polygon fill="black" stroke="black" points="1339.92,-691.51 1331.04,-697.29 1341.59,-698.31 1339.92,-691.51"/>
</g>
<!-- valid_orders&#45;&gt;paid_orders -->
<g id="edge29" class="edge">
<title>valid_orders&#45;&gt;paid_orders</title>
<path fill="none" stroke="black" d="M1438,-705.09C1410.43,-737.85 1372.5,-775.27 1329.75,-796 1248.1,-835.6 1140.63,-839.2 1076.19,-836.97"/>
<polygon fill="black" stroke="black" points="1076.71,-833.48 1066.58,-836.57 1076.42,-840.48 1076.71,-833.48"/>
</g>
<!-- valid_orders&#45;&gt;customer_aggregates -->
<g id="edge38" class="edge">
<title>valid_orders&#45;&gt;customer_aggregates</title>
<path fill="none" stroke="black" d="M1438.05,-612.45C1344.14,-556.32 1126.4,-447.38 971.5,-535 894.54,-578.53 847.01,-669.81 820.42,-739.95"/>
<polygon fill="black" stroke="black" points="817.2,-738.56 817.01,-749.15 823.77,-740.99 817.2,-738.56"/>
</g>
<!-- valid_orders&#45;&gt;customer_enriched -->
<g id="edge49" class="edge">
<title>valid_orders&#45;&gt;customer_enriched</title>
<path fill="none" stroke="black" d="M1437.77,-582.12C1410.13,-551.39 1372.2,-516.93 1329.75,-500 1208.39,-451.6 1028.78,-476.24 971.5,-496 829,-545.16 697.66,-663.1 618.51,-745.51"/>
<polygon fill="black" stroke="black" points="616.43,-742.63 612.06,-752.28 621.5,-747.46 616.43,-742.63"/>
</g>
<!-- valid_orders&#45;&gt;customer_segmented -->
<g id="edge69" class="edge">
<title>valid_orders&#45;&gt;customer_segmented</title>
<path fill="none" stroke="black" d="M1443.99,-570.74C1417.3,-531.03 1378.25,-485.22 1329.75,-463 1184.98,-396.68 1129.06,-444.92 971.5,-468 742.56,-501.53 663.61,-479.46 469.25,-605 430.66,-629.92 396.26,-665.81 368.17,-701.25"/>
<polygon fill="black" stroke="black" points="365.47,-699.01 362.09,-709.05 371,-703.31 365.47,-699.01"/>
</g>
<!-- orders_with_payments&#45;&gt;Scope_1 -->
<g id="edge3" class="edge">
<title>orders_with_payments&#45;&gt;Scope_1</title>
<path fill="none" stroke="black" d="M1233.66,-777.36C1189.25,-937.19 1057.26,-1310 792.38,-1310 539.25,-1310 539.25,-1310 539.25,-1310 359.77,-1310 194.88,-1155.65 111.85,-1062.7"/>
<polygon fill="black" stroke="black" points="114.56,-1060.49 105.32,-1055.31 109.32,-1065.12 114.56,-1060.49"/>
</g>
<!-- orders_with_payments&#45;&gt;valid_orders -->
<g id="edge16" class="edge">
<title>orders_with_payments:order_id&#45;&gt;valid_orders:order_id</title>
<path fill="none" stroke="blue" d="M1322.75,-739.75C1379.91,-739.75 1383.31,-683.97 1433.33,-676.56"/>
<polygon fill="blue" stroke="blue" points="1433.51,-680.06 1443.24,-675.86 1433.02,-673.07 1433.51,-680.06"/>
</g>
<!-- orders_with_payments&#45;&gt;valid_orders -->
<g id="edge17" class="edge">
<title>orders_with_payments:customer_id&#45;&gt;valid_orders:customer_id</title>
<path fill="none" stroke="blue" d="M1322.75,-717.25C1379.91,-717.25 1383.31,-661.47 1433.33,-654.06"/>
<polygon fill="blue" stroke="blue" points="1433.51,-657.56 1443.24,-653.36 1433.02,-650.57 1433.51,-657.56"/>
</g>
<!-- orders_with_payments&#45;&gt;valid_orders -->
<g id="edge18" class="edge">
<title>orders_with_payments:order_date&#45;&gt;valid_orders:order_date</title>
<path fill="none" stroke="blue" d="M1322.75,-694.75C1379.91,-694.75 1383.31,-638.97 1433.33,-631.56"/>
<polygon fill="blue" stroke="blue" points="1433.51,-635.06 1443.24,-630.86 1433.02,-628.07 1433.51,-635.06"/>
</g>
<!-- orders_with_payments&#45;&gt;valid_orders -->
<g id="edge19" class="edge">
<title>orders_with_payments:amount&#45;&gt;valid_orders:amount</title>
<path fill="none" stroke="blue" d="M1322.75,-672.25C1379.91,-672.25 1383.31,-616.47 1433.33,-609.06"/>
<polygon fill="blue" stroke="blue" points="1433.51,-612.56 1443.24,-608.36 1433.02,-605.57 1433.51,-612.56"/>
</g>
<!-- orders_with_payments&#45;&gt;paid_orders -->
<g id="edge30" class="edge">
<title>orders_with_payments&#45;&gt;paid_orders</title>
<path fill="none" stroke="black" d="M1175.27,-747.82C1142.49,-765.83 1104.89,-786.49 1074.94,-802.95"/>
<polygon fill="black" stroke="black" points="1073.49,-799.75 1066.41,-807.63 1076.86,-805.89 1073.49,-799.75"/>
</g>
<!-- orders_with_payments&#45;&gt;customer_aggregates -->
<g id="edge39" class="edge">
<title>orders_with_payments&#45;&gt;customer_aggregates</title>
<path fill="none" stroke="black" d="M1209.82,-777.33C1177.62,-824.97 1128.21,-883.73 1067,-911 1004.32,-938.93 929.13,-913.84 873.28,-884.91"/>
<polygon fill="black" stroke="black" points="875.24,-881.99 864.77,-880.38 871.95,-888.17 875.24,-881.99"/>
</g>
<!-- orders_with_payments&#45;&gt;customer_enriched -->
<g id="edge50" class="edge">
<title>orders_with_payments&#45;&gt;customer_enriched</title>
<path fill="none" stroke="black" d="M1175.1,-698.83C1070.12,-691.39 876.25,-686.43 719.25,-732 684.92,-741.96 650.08,-759.7 620.43,-777.55"/>
<polygon fill="black" stroke="black" points="618.98,-774.34 612.29,-782.55 622.64,-780.3 618.98,-774.34"/>
</g>
<!-- orders_with_payments&#45;&gt;customer_segmented -->
<g id="edge70" class="edge">
<title>orders_with_payments&#45;&gt;customer_segmented</title>
<path fill="none" stroke="black" d="M1175.2,-679.14C1031.27,-632.92 712.05,-552.3 469.25,-650 431.41,-665.23 397.08,-692.69 368.82,-721.26"/>
<polygon fill="black" stroke="black" points="366.5,-718.63 362.07,-728.25 371.53,-723.49 366.5,-718.63"/>
</g>
<!-- paid_orders&#45;&gt;Scope_1 -->
<g id="edge4" class="edge">
<title>paid_orders&#45;&gt;Scope_1</title>
<path fill="none" stroke="black" d="M973.69,-878.99C944.36,-907.38 904.01,-943.02 863.5,-968 664.98,-1090.4 593.38,-1097.47 361.25,-1120 297.44,-1126.19 277.63,-1140.85 217,-1120 180.12,-1107.32 145.21,-1082.38 117.34,-1058.02"/>
<polygon fill="black" stroke="black" points="119.84,-1055.55 110.05,-1051.5 115.17,-1060.77 119.84,-1055.55"/>
</g>
<!-- paid_orders&#45;&gt;orders_with_payments -->
<g id="edge24" class="edge">
<title>paid_orders:order_id&#45;&gt;orders_with_payments:order_id</title>
<path fill="none" stroke="blue" d="M1058.12,-855.5C1129.5,-855.5 1109.19,-751.64 1170.9,-740.68"/>
<polygon fill="blue" stroke="blue" points="1170.82,-744.2 1180.49,-739.88 1170.23,-737.23 1170.82,-744.2"/>
</g>
<!-- paid_orders&#45;&gt;orders_with_payments -->
<g id="edge25" class="edge">
<title>paid_orders:customer_id&#45;&gt;orders_with_payments:customer_id</title>
<path fill="none" stroke="blue" d="M1058.12,-833C1129.5,-833 1109.19,-729.14 1170.9,-718.18"/>
<polygon fill="blue" stroke="blue" points="1170.82,-721.7 1180.49,-717.38 1170.23,-714.73 1170.82,-721.7"/>
</g>
<!-- paid_orders&#45;&gt;orders_with_payments -->
<g id="edge26" class="edge">
<title>paid_orders:order_date&#45;&gt;orders_with_payments:order_date</title>
<path fill="none" stroke="blue" d="M1058.12,-810.5C1129.5,-810.5 1109.19,-706.64 1170.9,-695.68"/>
<polygon fill="blue" stroke="blue" points="1170.82,-699.2 1180.49,-694.88 1170.23,-692.23 1170.82,-699.2"/>
</g>
<!-- paid_orders&#45;&gt;orders_with_payments -->
<g id="edge27" class="edge">
<title>paid_orders:amount&#45;&gt;orders_with_payments:amount</title>
<path fill="none" stroke="blue" d="M1058.12,-788C1129.5,-788 1109.19,-684.14 1170.9,-673.18"/>
<polygon fill="blue" stroke="blue" points="1170.82,-676.7 1180.49,-672.38 1170.23,-669.73 1170.82,-676.7"/>
</g>
<!-- paid_orders&#45;&gt;customer_aggregates -->
<g id="edge40" class="edge">
<title>paid_orders&#45;&gt;customer_aggregates</title>
<path fill="none" stroke="black" d="M973.58,-821.99C945.31,-819.62 907.9,-818.94 874.41,-819.96"/>
<polygon fill="black" stroke="black" points="874.6,-816.45 864.74,-820.31 874.86,-823.45 874.6,-816.45"/>
</g>
<!-- paid_orders&#45;&gt;customer_aggregates -->
<g id="edge41" class="edge">
<title>paid_orders&#45;&gt;customer_aggregates</title>
<path fill="none" stroke="black" d="M973.58,-844.01C945.31,-846.38 907.9,-847.06 874.41,-846.04"/>
<polygon fill="black" stroke="black" points="874.86,-842.55 864.74,-845.69 874.6,-849.55 874.86,-842.55"/>
</g>
<!-- paid_orders&#45;&gt;customer_enriched -->
<g id="edge51" class="edge">
<title>paid_orders&#45;&gt;customer_enriched</title>
<path fill="none" stroke="black" d="M973.4,-872.38C944.27,-895.25 904.24,-921.88 863.5,-934 802.05,-952.28 781.24,-950.36 719.25,-934 684.99,-924.96 650.41,-907.63 620.96,-889.85"/>
<polygon fill="black" stroke="black" points="622.81,-886.88 612.46,-884.61 619.14,-892.84 622.81,-886.88"/>
</g>
<!-- paid_orders&#45;&gt;customer_segmented -->
<g id="edge71" class="edge">
<title>paid_orders&#45;&gt;customer_segmented</title>
<path fill="none" stroke="black" d="M973.54,-796.84C943.99,-774.77 903.46,-747.84 863.5,-732 699.55,-667.01 636.49,-631.03 469.25,-687 433.27,-699.04 398.74,-721.47 369.76,-744.63"/>
<polygon fill="black" stroke="black" points="367.65,-741.84 362.12,-750.88 372.08,-747.26 367.65,-741.84"/>
</g>
<!-- customer_aggregates&#45;&gt;Scope_1 -->
<g id="edge5" class="edge">
<title>customer_aggregates&#45;&gt;Scope_1</title>
<path fill="none" stroke="black" d="M725.85,-915.47C694.6,-950.57 654.49,-989.26 611.25,-1015 511.89,-1074.14 475.74,-1070.84 361.25,-1087 297.77,-1095.96 278.94,-1103.56 217,-1087 182.04,-1077.65 146.8,-1058.72 118.19,-1040.36"/>
<polygon fill="black" stroke="black" points="120.3,-1037.56 110.02,-1035 116.46,-1043.41 120.3,-1037.56"/>
</g>
<!-- customer_aggregates&#45;&gt;paid_orders -->
<g id="edge31" class="edge">
<title>customer_aggregates:total_orders&#45;&gt;paid_orders:order_id</title>
<path fill="none" stroke="blue" d="M856.5,-855.5C907.58,-855.5 923.11,-855.5 969.05,-855.5"/>
<polygon fill="blue" stroke="blue" points="968.86,-859 978.86,-855.5 968.86,-852 968.86,-859"/>
</g>
<!-- customer_aggregates&#45;&gt;paid_orders -->
<g id="edge32" class="edge">
<title>customer_aggregates:customer_id&#45;&gt;paid_orders:customer_id</title>
<path fill="none" stroke="blue" d="M856.5,-878C911.07,-878 920.64,-838.94 969.06,-833.6"/>
<polygon fill="blue" stroke="blue" points="969.06,-837.11 978.86,-833.08 968.69,-830.12 969.06,-837.11"/>
</g>
<!-- customer_aggregates&#45;&gt;paid_orders -->
<g id="edge33" class="edge">
<title>customer_aggregates:first_order_date&#45;&gt;paid_orders:order_date</title>
<path fill="none" stroke="blue" d="M856.5,-788C908.41,-788 922.46,-807.37 968.9,-810.16"/>
<polygon fill="blue" stroke="blue" points="968.76,-813.66 978.86,-810.46 968.97,-806.66 968.76,-813.66"/>
</g>
<!-- customer_aggregates&#45;&gt;paid_orders -->
<g id="edge34" class="edge">
<title>customer_aggregates:last_order_date&#45;&gt;paid_orders:order_date</title>
<path fill="none" stroke="blue" d="M856.5,-765.5C911.07,-765.5 920.64,-804.56 969.06,-809.9"/>
<polygon fill="blue" stroke="blue" points="968.69,-813.38 978.86,-810.42 969.06,-806.39 968.69,-813.38"/>
</g>
<!-- customer_aggregates&#45;&gt;paid_orders -->
<g id="edge35" class="edge">
<title>customer_aggregates:total_revenue&#45;&gt;paid_orders:amount</title>
<path fill="none" stroke="blue" d="M856.5,-833C911.07,-833 920.64,-793.94 969.06,-788.6"/>
<polygon fill="blue" stroke="blue" points="969.06,-792.11 978.86,-788.08 968.69,-785.12 969.06,-792.11"/>
</g>
<!-- customer_aggregates&#45;&gt;paid_orders -->
<g id="edge36" class="edge">
<title>customer_aggregates:avg_order_value&#45;&gt;paid_orders:amount</title>
<path fill="none" stroke="blue" d="M856.5,-810.5C908.41,-810.5 922.46,-791.13 968.9,-788.34"/>
<polygon fill="blue" stroke="blue" points="968.97,-791.84 978.86,-788.04 968.76,-784.84 968.97,-791.84"/>
</g>
<!-- customer_aggregates&#45;&gt;customer_enriched -->
<g id="edge52" class="edge">
<title>customer_aggregates&#45;&gt;customer_enriched</title>
<path fill="none" stroke="black" d="M719.37,-820.68C689.09,-819.26 653.6,-819.12 622.3,-820.26"/>
<polygon fill="black" stroke="black" points="622.33,-816.76 612.49,-820.67 622.63,-823.75 622.33,-816.76"/>
</g>
<!-- customer_aggregates&#45;&gt;customer_enriched -->
<g id="edge54" class="edge">
<title>customer_aggregates&#45;&gt;customer_enriched</title>
<path fill="none" stroke="black" d="M719.37,-845.32C689.09,-846.74 653.6,-846.88 622.3,-845.74"/>
<polygon fill="black" stroke="black" points="622.63,-842.25 612.49,-845.33 622.33,-849.24 622.63,-842.25"/>
</g>
<!-- customer_aggregates&#45;&gt;customer_segmented -->
<g id="edge72" class="edge">
<title>customer_aggregates&#45;&gt;customer_segmented</title>
<path fill="none" stroke="black" d="M719.64,-909.56C689.27,-937 651.5,-964.67 611.25,-979 551.79,-1000.16 528.32,-1001.22 469.25,-979 432.26,-965.08 397.93,-939.68 369.42,-913.3"/>
<polygon fill="black" stroke="black" points="371.92,-910.85 362.25,-906.51 367.1,-915.93 371.92,-910.85"/>
</g>
<!-- customer_enriched&#45;&gt;Scope_1 -->
<g id="edge6" class="edge">
<title>customer_enriched&#45;&gt;Scope_1</title>
<path fill="none" stroke="black" d="M469.4,-955.59C441.1,-993.34 404.73,-1030.37 361.25,-1051 283.15,-1088.06 183.17,-1056.48 119.21,-1027.61"/>
<polygon fill="black" stroke="black" points="120.79,-1024.49 110.24,-1023.46 117.85,-1030.84 120.79,-1024.49"/>
</g>
<!-- customer_enriched&#45;&gt;customer_aggregates -->
<g id="edge42" class="edge">
<title>customer_enriched:total_orders&#45;&gt;customer_aggregates:total_orders</title>
<path fill="none" stroke="blue" d="M604.25,-833C655.4,-833 669.19,-852.37 714.94,-855.16"/>
<polygon fill="blue" stroke="blue" points="714.64,-858.66 724.74,-855.46 714.85,-851.66 714.64,-858.66"/>
</g>
<!-- customer_enriched&#45;&gt;customer_aggregates -->
<g id="edge43" class="edge">
<title>customer_enriched:total_revenue&#45;&gt;customer_aggregates:total_revenue</title>
<path fill="none" stroke="blue" d="M604.25,-810.5C655.4,-810.5 669.19,-829.87 714.94,-832.66"/>
<polygon fill="blue" stroke="blue" points="714.64,-836.16 724.74,-832.96 714.85,-829.16 714.64,-836.16"/>
</g>
<!-- customer_enriched&#45;&gt;customer_aggregates -->
<g id="edge44" class="edge">
<title>customer_enriched:avg_order_value&#45;&gt;customer_aggregates:avg_order_value</title>
<path fill="none" stroke="blue" d="M604.25,-788C655.4,-788 669.19,-807.37 714.94,-810.16"/>
<polygon fill="blue" stroke="blue" points="714.64,-813.66 724.74,-810.46 714.85,-806.66 714.64,-813.66"/>
</g>
<!-- customer_enriched&#45;&gt;customer_aggregates -->
<g id="edge45" class="edge">
<title>customer_enriched:first_order_date&#45;&gt;customer_aggregates:first_order_date</title>
<path fill="none" stroke="blue" d="M604.25,-765.5C655.4,-765.5 669.19,-784.87 714.94,-787.66"/>
<polygon fill="blue" stroke="blue" points="714.64,-791.16 724.74,-787.96 714.85,-784.16 714.64,-791.16"/>
</g>
<!-- customer_enriched&#45;&gt;customer_aggregates -->
<g id="edge46" class="edge">
<title>customer_enriched:last_order_date&#45;&gt;customer_aggregates:last_order_date</title>
<path fill="none" stroke="blue" d="M604.25,-743C655.4,-743 669.19,-762.37 714.94,-765.16"/>
<polygon fill="blue" stroke="blue" points="714.64,-768.66 724.74,-765.46 714.85,-761.66 714.64,-768.66"/>
</g>
<!-- customer_enriched&#45;&gt;customer_aggregates -->
<g id="edge47" class="edge">
<title>customer_enriched:days_since_last_order&#45;&gt;customer_aggregates:last_order_date</title>
<path fill="none" stroke="blue" d="M604.25,-720.5C657.98,-720.5 667.3,-759.39 714.79,-764.86"/>
<polygon fill="blue" stroke="blue" points="714.56,-768.36 724.74,-765.42 714.95,-761.37 714.56,-768.36"/>
</g>
<!-- customer_enriched&#45;&gt;customer_segmented -->
<g id="edge73" class="edge">
<title>customer_enriched&#45;&gt;customer_segmented</title>
<path fill="none" stroke="black" d="M469.39,-817.65C439.3,-814.87 403.9,-813.14 372.54,-812.85"/>
<polygon fill="black" stroke="black" points="372.71,-809.35 362.69,-812.82 372.68,-816.35 372.71,-809.35"/>
</g>
<!-- customer_enriched&#45;&gt;customer_segmented -->
<g id="edge74" class="edge">
<title>customer_enriched&#45;&gt;customer_segmented</title>
<path fill="none" stroke="black" d="M469.39,-842.18C439.3,-842.3 403.9,-840.91 372.54,-838.43"/>
<polygon fill="black" stroke="black" points="372.95,-834.95 362.69,-837.59 372.36,-841.92 372.95,-834.95"/>
</g>
<!-- customer_segmented&#45;&gt;Scope_1 -->
<g id="edge7" class="edge">
<title>customer_segmented&#45;&gt;Scope_1</title>
<path fill="none" stroke="black" d="M217.36,-861.79C185.6,-883.86 148.45,-911.47 117.76,-935.86"/>
<polygon fill="black" stroke="black" points="115.67,-933.05 110.05,-942.03 120.04,-938.51 115.67,-933.05"/>
</g>
<!-- customer_segmented&#45;&gt;Scope_1 -->
<g id="edge8" class="edge">
<title>customer_segmented&#45;&gt;Scope_1</title>
<path fill="none" stroke="black" d="M217.36,-886.86C185.73,-911.65 148.77,-938.85 118.15,-959.81"/>
<polygon fill="black" stroke="black" points="116.43,-956.74 110.12,-965.25 120.36,-962.54 116.43,-956.74"/>
</g>
<!-- customer_segmented&#45;&gt;customer_enriched -->
<g id="edge55" class="edge">
<title>customer_segmented:customer_id&#45;&gt;customer_enriched:customer_id</title>
<path fill="none" stroke="blue" d="M354.25,-923.25C404.45,-923.25 419.79,-923.04 464.82,-923"/>
<polygon fill="blue" stroke="blue" points="464.74,-926.5 474.74,-923 464.74,-919.5 464.74,-926.5"/>
</g>
<!-- customer_segmented&#45;&gt;customer_enriched -->
<g id="edge56" class="edge">
<title>customer_segmented:customer_name&#45;&gt;customer_enriched:customer_name</title>
<path fill="none" stroke="blue" d="M354.25,-900.75C404.45,-900.75 419.79,-900.54 464.82,-900.5"/>
<polygon fill="blue" stroke="blue" points="464.74,-904 474.74,-900.5 464.74,-897 464.74,-904"/>
</g>
<!-- customer_segmented&#45;&gt;customer_enriched -->
<g id="edge57" class="edge">
<title>customer_segmented:country&#45;&gt;customer_enriched:country</title>
<path fill="none" stroke="blue" d="M354.25,-878.25C404.45,-878.25 419.79,-878.04 464.82,-878"/>
<polygon fill="blue" stroke="blue" points="464.74,-881.5 474.74,-878 464.74,-874.5 464.74,-881.5"/>
</g>
<!-- customer_segmented&#45;&gt;customer_enriched -->
<g id="edge58" class="edge">
<title>customer_segmented:signup_date&#45;&gt;customer_enriched:signup_date</title>
<path fill="none" stroke="blue" d="M354.25,-855.75C404.45,-855.75 419.79,-855.54 464.82,-855.5"/>
<polygon fill="blue" stroke="blue" points="464.74,-859 474.74,-855.5 464.74,-852 464.74,-859"/>
</g>
<!-- customer_segmented&#45;&gt;customer_enriched -->
<g id="edge59" class="edge">
<title>customer_segmented:total_orders&#45;&gt;customer_enriched:total_orders</title>
<path fill="none" stroke="blue" d="M354.25,-833.25C404.45,-833.25 419.79,-833.04 464.82,-833"/>
<polygon fill="blue" stroke="blue" points="464.74,-836.5 474.74,-833 464.74,-829.5 464.74,-836.5"/>
</g>
<!-- customer_segmented&#45;&gt;customer_enriched -->
<g id="edge60" class="edge">
<title>customer_segmented:customer_segment&#45;&gt;customer_enriched:total_orders</title>
<path fill="none" stroke="blue" d="M354.25,-698.25C430.94,-698.25 399.17,-819.66 464.84,-831.99"/>
<polygon fill="blue" stroke="blue" points="464.47,-835.47 474.74,-832.87 465.09,-828.5 464.47,-835.47"/>
</g>
<!-- customer_segmented&#45;&gt;customer_enriched -->
<g id="edge61" class="edge">
<title>customer_segmented:total_revenue&#45;&gt;customer_enriched:total_revenue</title>
<path fill="none" stroke="blue" d="M354.25,-810.75C404.45,-810.75 419.79,-810.54 464.82,-810.5"/>
<polygon fill="blue" stroke="blue" points="464.74,-814 474.74,-810.5 464.74,-807 464.74,-814"/>
</g>
<!-- customer_segmented&#45;&gt;customer_enriched -->
<g id="edge62" class="edge">
<title>customer_segmented:customer_segment&#45;&gt;customer_enriched:total_revenue</title>
<path fill="none" stroke="blue" d="M354.25,-698.25C423.9,-698.25 405.05,-798.56 465.02,-809.53"/>
<polygon fill="blue" stroke="blue" points="464.48,-813 474.74,-810.37 465.08,-806.02 464.48,-813"/>
</g>
<!-- customer_segmented&#45;&gt;customer_enriched -->
<g id="edge63" class="edge">
<title>customer_segmented:avg_order_value&#45;&gt;customer_enriched:avg_order_value</title>
<path fill="none" stroke="blue" d="M354.25,-788.25C404.45,-788.25 419.79,-788.04 464.82,-788"/>
<polygon fill="blue" stroke="blue" points="464.74,-791.5 474.74,-788 464.74,-784.5 464.74,-791.5"/>
</g>
<!-- customer_segmented&#45;&gt;customer_enriched -->
<g id="edge64" class="edge">
<title>customer_segmented:first_order_date&#45;&gt;customer_enriched:first_order_date</title>
<path fill="none" stroke="blue" d="M354.25,-765.75C404.45,-765.75 419.79,-765.54 464.82,-765.5"/>
<polygon fill="blue" stroke="blue" points="464.74,-769 474.74,-765.5 464.74,-762 464.74,-769"/>
</g>
<!-- customer_segmented&#45;&gt;customer_enriched -->
<g id="edge65" class="edge">
<title>customer_segmented:last_order_date&#45;&gt;customer_enriched:last_order_date</title>
<path fill="none" stroke="blue" d="M354.25,-743.25C404.45,-743.25 419.79,-743.04 464.82,-743"/>
<polygon fill="blue" stroke="blue" points="464.74,-746.5 474.74,-743 464.74,-739.5 464.74,-746.5"/>
</g>
<!-- customer_segmented&#45;&gt;customer_enriched -->
<g id="edge66" class="edge">
<title>customer_segmented:days_since_last_order&#45;&gt;customer_enriched:days_since_last_order</title>
<path fill="none" stroke="blue" d="M354.25,-720.75C404.45,-720.75 419.79,-720.54 464.82,-720.5"/>
<polygon fill="blue" stroke="blue" points="464.74,-724 474.74,-720.5 464.74,-717 464.74,-724"/>
</g>
<!-- customer_segmented&#45;&gt;customer_enriched -->
<g id="edge67" class="edge">
<title>customer_segmented:customer_segment&#45;&gt;customer_enriched:days_since_last_order</title>
<path fill="none" stroke="blue" d="M354.25,-698.25C405.38,-698.25 419.21,-717.4 464.95,-720.17"/>
<polygon fill="blue" stroke="blue" points="464.64,-723.66 474.74,-720.46 464.84,-716.66 464.64,-723.66"/>
</g>
<!-- db.raw_orders -->
<g id="node9" class="node">
<title>db.raw_orders</title>
<text xml:space="preserve" text-anchor="middle" x="1485.12" y="-12.95" font-family="Times,serif" font-size="14.00">db.raw_orders</text>
</g>
<!-- db.raw_orders&#45;&gt;cleaned_orders -->
<g id="edge9" class="edge">
<title>db.raw_orders&#45;&gt;cleaned_orders</title>
<path fill="none" stroke="black" d="M1508.97,-35.72C1517.43,-43.31 1526.42,-52.78 1532.5,-63 1627.89,-223.4 1669,-442.18 1685.12,-559.55"/>
<polygon fill="black" stroke="black" points="1681.64,-559.98 1686.44,-569.43 1688.58,-559.05 1681.64,-559.98"/>
</g>
<!-- raw_payments -->
<g id="node10" class="node">
<title>raw_payments</title>
<text xml:space="preserve" text-anchor="middle" x="1019.25" y="-565.95" font-family="Times,serif" font-size="14.00">raw_payments</text>
</g>
<!-- raw_payments&#45;&gt;orders_with_payments -->
<g id="edge23" class="edge">
<title>raw_payments&#45;&gt;orders_with_payments</title>
<path fill="none" stroke="black" d="M1050.94,-588.93C1080.1,-605.96 1125.31,-632.37 1165.42,-655.8"/>
<polygon fill="black" stroke="black" points="1163.52,-658.74 1173.92,-660.76 1167.05,-652.69 1163.52,-658.74"/>
</g>
<!-- raw_customers -->
<g id="node11" class="node">
<title>raw_customers</title>
<text xml:space="preserve" text-anchor="middle" x="289.12" y="-1009.95" font-family="Times,serif" font-size="14.00">raw_customers</text>
</g>
<!-- raw_customers&#45;&gt;customer_enriched -->
<g id="edge53" class="edge">
<title>raw_customers&#45;&gt;customer_enriched</title>
<path fill="none" stroke="black" d="M329.37,-997.06C339.98,-991.7 351.28,-985.5 361.25,-979 395.53,-956.65 430.87,-928.82 460.93,-903.47"/>
<polygon fill="black" stroke="black" points="463.16,-906.17 468.52,-897.03 458.63,-900.83 463.16,-906.17"/>
</g>
</g>
</svg>
