<?xml version="1.0" encoding="UTF-8" standalone="no"?>
<!DOCTYPE svg PUBLIC "-//W3C//DTD SVG 1.1//EN"
 "http://www.w3.org/Graphics/SVG/1.1/DTD/svg11.dtd">
<!-- Generated by graphviz version 14.1.1 (20251213.1925)
 -->
<!-- Pages: 1 -->
<svg width="1783pt" height="1550pt"
 viewBox="0.00 0.00 1783.00 1550.00" xmlns="http://www.w3.org/2000/svg" xmlns:xlink="http://www.w3.org/1999/xlink">
<g id="graph0" class="graph" transform="scale(1 1) rotate(0) translate(4 1546.25)">
<polygon fill="white" stroke="none" points="-4,4 -4,-1546.25 1779,-1546.25 1779,4 -4,4"/>
<!-- Scope_1 -->
<g id="node1" class="node">
<title>Scope_1</title>
<polygon fill="lightblue" stroke="none" points="8,-1112 8,-1134.5 101,-1134.5 101,-1112 8,-1112"/>
<polygon fill="none" stroke="black" points="8,-1112 8,-1134.5 101,-1134.5 101,-1112 8,-1112"/>
<text xml:space="preserve" text-anchor="start" x="30.88" y="-1119.2" font-family="Times,serif" font-weight="bold" font-size="14.00">Scope_1</text>
<polygon fill="none" stroke="black" points="8,-1089.5 8,-1112 101,-1112 101,-1089.5 8,-1089.5"/>
<text xml:space="preserve" text-anchor="start" x="11" y="-1095.7" font-family="Times,serif" font-size="14.00">customer_id</text>
<polygon fill="none" stroke="black" points="8,-1067 8,-1089.5 101,-1089.5 101,-1067 8,-1067"/>
<text xml:space="preserve" text-anchor="start" x="11" y="-1073.2" font-family="Times,serif" font-size="14.00">customer_name</text>
<polygon fill="none" stroke="black" points="8,-1044.5 8,-1067 101,-1067 101,-1044.5 8,-1044.5"/>
<text xml:space="preserve" text-anchor="start" x="11" y="-1050.7" font-family="Times,serif" font-size="14.00">country</text>
<polygon fill="none" stroke="black" points="8,-1022 8,-1044.5 101,-1044.5 101,-1022 8,-1022"/>
<text xml:space="preserve" text-anchor="start" x="11" y="-1028.2" font-family="Times,serif" font-size="14.00">signup_date</text>
</g>
<!-- customer_segmented -->
<g id="node11" class="node">
<title>customer_segmented</title>
<polygon fill="lightblue" stroke="none" points="225,-1018.75 225,-1041.25 353.25,-1041.25 353.25,-1018.75 225,-1018.75"/>
<polygon fill="none" stroke="black" points="225,-1018.75 225,-1041.25 353.25,-1041.25 353.25,-1018.75 225,-1018.75"/>
<text xml:space="preserve" text-anchor="start" x="228" y="-1025.95" font-family="Times,serif" font-weight="bold" font-size="14.00">customer_segmented</text>
<polygon fill="none" stroke="black" points="225,-996.25 225,-1018.75 353.25,-1018.75 353.25,-996.25 225,-996.25"/>
<text xml:space="preserve" text-anchor="start" x="228" y="-1002.45" font-family="Times,serif" font-size="14.00">customer_id</text>
<polygon fill="none" stroke="black" points="225,-973.75 225,-996.25 353.25,-996.25 353.25,-973.75 225,-973.75"/>
<text xml:space="preserve" text-anchor="start" x="228" y="-979.95" font-family="Times,serif" font-size="14.00">customer_name</text>
<polygon fill="none" stroke="black" points="225,-951.25 225,-973.75 353.25,-973.75 353.25,-951.25 225,-951.25"/>
<text xml:space="preserve" text-anchor="start" x="228" y="-957.45" font-family="Times,serif" font-size="14.00">country</text>
<polygon fill="none" stroke="black" points="225,-928.75 225,-951.25 353.25,-951.25 353.25,-928.75 225,-928.75"/>
<text xml:space="preserve" text-anchor="start" x="228" y="-934.95" font-family="Times,serif" font-size="14.00">signup_date</text>
<polygon fill="none" stroke="black" points="225,-906.25 225,-928.75 353.25,-928.75 353.25,-906.25 225,-906.25"/>
<text xml:space="preserve" text-anchor="start" x="228" y="-912.45" font-family="Times,serif" font-size="14.00">total_orders</text>
<polygon fill="none" stroke="black" points="225,-883.75 225,-906.25 353.25,-906.25 353.25,-883.75 225,-883.75"/>
<text xml:space="preserve" text-anchor="start" x="228" y="-889.95" font-family="Times,serif" font-size="14.00">total_revenue</text>
<polygon fill="none" stroke="black" points="225,-861.25 225,-883.75 353.25,-883.75 353.25,-861.25 225,-861.25"/>
<text xml:space="preserve" text-anchor="start" x="228" y="-867.45" font-family="Times,serif" font-size="14.00">avg_order_value</text>
<polygon fill="none" stroke="black" points="225,-838.75 225,-861.25 353.25,-861.25 353.25,-838.75 225,-838.75"/>
<text xml:space="preserve" text-anchor="start" x="228" y="-844.95" font-family="Times,serif" font-size="14.00">first_order_date</text>
<polygon fill="none" stroke="black" points="225,-816.25 225,-838.75 353.25,-838.75 353.25,-816.25 225,-816.25"/>
<text xml:space="preserve" text-anchor="start" x="228" y="-822.45" font-family="Times,serif" font-size="14.00">last_order_date</text>
<polygon fill="none" stroke="black" points="225,-793.75 225,-816.25 353.25,-816.25 353.25,-793.75 225,-793.75"/>
<text xml:space="preserve" text-anchor="start" x="228" y="-799.95" font-family="Times,serif" font-size="14.00">days_since_last_order</text>
<polygon fill="none" stroke="black" points="225,-771.25 225,-793.75 353.25,-793.75 353.25,-771.25 225,-771.25"/>
<text xml:space="preserve" text-anchor="start" x="228" y="-777.45" font-family="Times,serif" font-size="14.00">customer_segment</text>
</g>
<!-- Scope_1&#45;&gt;customer_segmented -->
<g id="edge75" class="edge">
<title>Scope_1:customer_id&#45;&gt;customer_segmented:customer_id</title>
<path fill="none" stroke="blue" d="M102,-1100.75C166.25,-1100.75 157.17,-1018.11 212.82,-1008.42"/>
<polygon fill="blue" stroke="blue" points="212.81,-1011.94 222.49,-1007.62 212.24,-1004.96 212.81,-1011.94"/>
</g>
<!-- Scope_1&#45;&gt;customer_segmented -->
<g id="edge76" class="edge">
<title>Scope_1:customer_name&#45;&gt;customer_segmented:customer_name</title>
<path fill="none" stroke="blue" d="M102,-1078.25C166.25,-1078.25 157.17,-995.61 212.82,-985.92"/>
<polygon fill="blue" stroke="blue" points="212.81,-989.44 222.49,-985.12 212.24,-982.46 212.81,-989.44"/>
</g>
<!-- Scope_1&#45;&gt;customer_segmented -->
<g id="edge77" class="edge">
<title>Scope_1:country&#45;&gt;customer_segmented:country</title>
<path fill="none" stroke="blue" d="M102,-1055.75C166.25,-1055.75 157.17,-973.11 212.82,-963.42"/>
<polygon fill="blue" stroke="blue" points="212.81,-966.94 222.49,-962.62 212.24,-959.96 212.81,-966.94"/>
</g>
<!-- Scope_1&#45;&gt;customer_segmented -->
<g id="edge78" class="edge">
<title>Scope_1:signup_date&#45;&gt;customer_segmented:signup_date</title>
<path fill="none" stroke="blue" d="M102,-1033.25C166.25,-1033.25 157.17,-950.61 212.82,-940.92"/>
<polygon fill="blue" stroke="blue" points="212.81,-944.44 222.49,-940.12 212.24,-937.46 212.81,-944.44"/>
</g>
<!-- cleaned_orders -->
<g id="node2" class="node">
<title>cleaned_orders</title>
<polygon fill="lightblue" stroke="none" points="1673.25,-771.25 1673.25,-793.75 1767,-793.75 1767,-771.25 1673.25,-771.25"/>
<polygon fill="none" stroke="black" points="1673.25,-771.25 1673.25,-793.75 1767,-793.75 1767,-771.25 1673.25,-771.25"/>
<text xml:space="preserve" text-anchor="start" x="1676.25" y="-778.45" font-family="Times,serif" font-weight="bold" font-size="14.00">cleaned_orders</text>
<polygon fill="none" stroke="black" points="1673.25,-748.75 1673.25,-771.25 1767,-771.25 1767,-748.75 1673.25,-748.75"/>
<text xml:space="preserve" text-anchor="start" x="1676.25" y="-754.95" font-family="Times,serif" font-size="14.00">order_id</text>
<polygon fill="none" stroke="black" points="1673.25,-726.25 1673.25,-748.75 1767,-748.75 1767,-726.25 1673.25,-726.25"/>
<text xml:space="preserve" text-anchor="start" x="1676.25" y="-732.45" font-family="Times,serif" font-size="14.00">customer_id</text>
<polygon fill="none" stroke="black" points="1673.25,-703.75 1673.25,-726.25 1767,-726.25 1767,-703.75 1673.25,-703.75"/>
<text xml:space="preserve" text-anchor="start" x="1676.25" y="-709.95" font-family="Times,serif" font-size="14.00">order_date</text>
<polygon fill="none" stroke="black" points="1673.25,-681.25 1673.25,-703.75 1767,-703.75 1767,-681.25 1673.25,-681.25"/>
<text xml:space="preserve" text-anchor="start" x="1676.25" y="-687.45" font-family="Times,serif" font-size="14.00">amount</text>
<polygon fill="none" stroke="black" points="1673.25,-658.75 1673.25,-681.25 1767,-681.25 1767,-658.75 1673.25,-658.75"/>
<text xml:space="preserve" text-anchor="start" x="1676.25" y="-664.95" font-family="Times,serif" font-size="14.00">order_status</text>
</g>
<!-- cleaned_orders&#45;&gt;Scope_1 -->
<g id="edge1" class="edge">
<title>cleaned_orders&#45;&gt;Scope_1</title>
<path fill="none" stroke="black" d="M1713.23,-797.59C1692.52,-996.42 1604.76,-1542.25 1265.38,-1542.25 539.25,-1542.25 539.25,-1542.25 539.25,-1542.25 383.97,-1542.25 330.02,-1513.73 217,-1407.25 141.67,-1336.28 96.87,-1222.69 74.21,-1149.28"/>
<polygon fill="black" stroke="black" points="77.58,-1148.31 71.34,-1139.75 70.88,-1150.33 77.58,-1148.31"/>
</g>
<!-- valid_orders -->
<g id="node4" class="node">
<title>valid_orders</title>
<polygon fill="lightblue" stroke="none" points="1464.12,-771.25 1464.12,-793.75 1542.88,-793.75 1542.88,-771.25 1464.12,-771.25"/>
<polygon fill="none" stroke="black" points="1464.12,-771.25 1464.12,-793.75 1542.88,-793.75 1542.88,-771.25 1464.12,-771.25"/>
<text xml:space="preserve" text-anchor="start" x="1467.12" y="-778.45" font-family="Times,serif" font-weight="bold" font-size="14.00">valid_orders</text>
<polygon fill="none" stroke="black" points="1464.12,-748.75 1464.12,-771.25 1542.88,-771.25 1542.88,-748.75 1464.12,-748.75"/>
<text xml:space="preserve" text-anchor="start" x="1467.12" y="-754.95" font-family="Times,serif" font-size="14.00">order_id</text>
<polygon fill="none" stroke="black" points="1464.12,-726.25 1464.12,-748.75 1542.88,-748.75 1542.88,-726.25 1464.12,-726.25"/>
<text xml:space="preserve" text-anchor="start" x="1467.12" y="-732.45" font-family="Times,serif" font-size="14.00">customer_id</text>
<polygon fill="none" stroke="black" points="1464.12,-703.75 1464.12,-726.25 1542.88,-726.25 1542.88,-703.75 1464.12,-703.75"/>
<text xml:space="preserve" text-anchor="start" x="1467.12" y="-709.95" font-family="Times,serif" font-size="14.00">order_date</text>
<polygon fill="none" stroke="black" points="1464.12,-681.25 1464.12,-703.75 1542.88,-703.75 1542.88,-681.25 1464.12,-681.25"/>
<text xml:space="preserve" text-anchor="start" x="1467.12" y="-687.45" font-family="Times,serif" font-size="14.00">amount</text>
<polygon fill="none" stroke="black" points="1464.12,-658.75 1464.12,-681.25 1542.88,-681.25 1542.88,-658.75 1464.12,-658.75"/>
<text xml:space="preserve" text-anchor="start" x="1467.12" y="-664.95" font-family="Times,serif" font-size="14.00">order_status</text>
</g>
<!-- cleaned_orders&#45;&gt;valid_orders -->
<g id="edge15" class="edge">
<title>cleaned_orders&#45;&gt;valid_orders</title>
<path fill="none" stroke="black" d="M1665.33,-726.25C1633.92,-726.25 1594.3,-726.25 1562.25,-726.25"/>
<polygon fill="black" stroke="black" points="1562.32,-722.75 1552.32,-726.25 1562.32,-729.75 1562.32,-722.75"/>
</g>
<!-- orders_with_payments -->
<g id="node5" class="node">
<title>orders_with_payments</title>
<polygon fill="lightblue" stroke="none" points="1195,-835.25 1195,-857.75 1333.75,-857.75 1333.75,-835.25 1195,-835.25"/>
<polygon fill="none" stroke="black" points="1195,-835.25 1195,-857.75 1333.75,-857.75 1333.75,-835.25 1195,-835.25"/>
<text xml:space="preserve" text-anchor="start" x="1198" y="-842.45" font-family="Times,serif" font-weight="bold" font-size="14.00">orders_with_payments</text>
<polygon fill="none" stroke="black" points="1195,-812.75 1195,-835.25 1333.75,-835.25 1333.75,-812.75 1195,-812.75"/>
<text xml:space="preserve" text-anchor="start" x="1198" y="-818.95" font-family="Times,serif" font-size="14.00">order_id</text>
<polygon fill="none" stroke="black" points="1195,-790.25 1195,-812.75 1333.75,-812.75 1333.75,-790.25 1195,-790.25"/>
<text xml:space="preserve" text-anchor="start" x="1198" y="-796.45" font-family="Times,serif" font-size="14.00">customer_id</text>
<polygon fill="none" stroke="black" points="1195,-767.75 1195,-790.25 1333.75,-790.25 1333.75,-767.75 1195,-767.75"/>
<text xml:space="preserve" text-anchor="start" x="1198" y="-773.95" font-family="Times,serif" font-size="14.00">order_date</text>
<polygon fill="none" stroke="black" points="1195,-745.25 1195,-767.75 1333.75,-767.75 1333.75,-745.25 1195,-745.25"/>
<text xml:space="preserve" text-anchor="start" x="1198" y="-751.45" font-family="Times,serif" font-size="14.00">amount</text>
<polygon fill="none" stroke="black" points="1195,-722.75 1195,-745.25 1333.75,-745.25 1333.75,-722.75 1195,-722.75"/>
<text xml:space="preserve" text-anchor="start" x="1198" y="-728.95" font-family="Times,serif" font-size="14.00">payment_status</text>
</g>
<!-- cleaned_orders&#45;&gt;orders_with_payments -->
<g id="edge20" class="edge">
<title>cleaned_orders&#45;&gt;orders_with_payments</title>
<path fill="none" stroke="black" d="M1665.54,-765.14C1635.35,-784.64 1596,-806.2 1557.25,-816.25 1489.94,-833.7 1411.29,-825.11 1352.61,-813.3"/>
<polygon fill="black" stroke="black" points="1353.51,-809.91 1343,-811.29 1352.08,-816.77 1353.51,-809.91"/>
</g>
<!-- paid_orders -->
<g id="node7" class="node">
<title>paid_orders</title>
<polygon fill="lightblue" stroke="none" points="987.38,-951 987.38,-973.5 1063.12,-973.5 1063.12,-951 987.38,-951"/>
<polygon fill="none" stroke="black" points="987.38,-951 987.38,-973.5 1063.12,-973.5 1063.12,-951 987.38,-951"/>
<text xml:space="preserve" text-anchor="start" x="990.38" y="-958.2" font-family="Times,serif" font-weight="bold" font-size="14.00">paid_orders</text>
<polygon fill="none" stroke="black" points="987.38,-928.5 987.38,-951 1063.12,-951 1063.12,-928.5 987.38,-928.5"/>
<text xml:space="preserve" text-anchor="start" x="990.38" y="-934.7" font-family="Times,serif" font-size="14.00">order_id</text>
<polygon fill="none" stroke="black" points="987.38,-906 987.38,-928.5 1063.12,-928.5 1063.12,-906 987.38,-906"/>
<text xml:space="preserve" text-anchor="start" x="990.38" y="-912.2" font-family="Times,serif" font-size="14.00">customer_id</text>
<polygon fill="none" stroke="black" points="987.38,-883.5 987.38,-906 1063.12,-906 1063.12,-883.5 987.38,-883.5"/>
<text xml:space="preserve" text-anchor="start" x="990.38" y="-889.7" font-family="Times,serif" font-size="14.00">order_date</text>
<polygon fill="none" stroke="black" points="987.38,-861 987.38,-883.5 1063.12,-883.5 1063.12,-861 987.38,-861"/>
<text xml:space="preserve" text-anchor="start" x="990.38" y="-867.2" font-family="Times,serif" font-size="14.00">amount</text>
</g>
<!-- cleaned_orders&#45;&gt;paid_orders -->
<g id="edge28" class="edge">
<title>cleaned_orders&#45;&gt;paid_orders</title>
<path fill="none" stroke="black" d="M1665.48,-687.79C1635.27,-668.5 1595.92,-647.18 1557.25,-637.25 1395.5,-595.72 1326.23,-609.04 1187,-701.25 1132.13,-737.59 1088.99,-799.3 1061.27,-847.47"/>
<polygon fill="black" stroke="black" points="1058.38,-845.48 1056.51,-855.91 1064.48,-848.92 1058.38,-845.48"/>
</g>
<!-- customer_aggregates -->
<g id="node8" class="node">
<title>customer_aggregates</title>
<polygon fill="lightblue" stroke="none" points="727.25,-973.5 727.25,-996 855.5,-996 855.5,-973.5 727.25,-973.5"/>
<polygon fill="none" stroke="black" points="727.25,-973.5 727.25,-996 855.5,-996 855.5,-973.5 727.25,-973.5"/>
<text xml:space="preserve" text-anchor="start" x="730.25" y="-980.7" font-family="Times,serif" font-weight="bold" font-size="14.00">customer_aggregates</text>
<polygon fill="none" stroke="black" points="727.25,-951 727.25,-973.5 855.5,-973.5 855.5,-951 727.25,-951"/>
<text xml:space="preserve" text-anchor="start" x="730.25" y="-957.2" font-family="Times,serif" font-size="14.00">customer_id</text>
<polygon fill="none" stroke="black" points="727.25,-928.5 727.25,-951 855.5,-951 855.5,-928.5 727.25,-928.5"/>
<text xml:space="preserve" text-anchor="start" x="730.25" y="-934.7" font-family="Times,serif" font-size="14.00">total_orders</text>
<polygon fill="none" stroke="black" points="727.25,-906 727.25,-928.5 855.5,-928.5 855.5,-906 727.25,-906"/>
<text xml:space="preserve" text-anchor="start" x="730.25" y="-912.2" font-family="Times,serif" font-size="14.00">total_revenue</text>
<polygon fill="none" stroke="black" points="727.25,-883.5 727.25,-906 855.5,-906 855.5,-883.5 727.25,-883.5"/>
<text xml:space="preserve" text-anchor="start" x="730.25" y="-889.7" font-family="Times,serif" font-size="14.00">avg_order_value</text>
<polygon fill="none" stroke="black" points="727.25,-861 727.25,-883.5 855.5,-883.5 855.5,-861 727.25,-861"/>
<text xml:space="preserve" text-anchor="start" x="730.25" y="-867.2" font-family="Times,serif" font-size="14.00">first_order_date</text>
<polygon fill="none" stroke="black" points="727.25,-838.5 727.25,-861 855.5,-861 855.5,-838.5 727.25,-838.5"/>
<text xml:space="preserve" text-anchor="start" x="730.25" y="-844.7" font-family="Times,serif" font-size="14.00">last_order_date</text>
</g>
<!-- cleaned_orders&#45;&gt;customer_aggregates -->
<g id="edge37" class="edge">
<title>cleaned_orders&#45;&gt;customer_aggregates</title>
<path fill="none" stroke="black" d="M1665.29,-674.97C1635.78,-650.17 1597.15,-622.69 1557.25,-608.25 1038.68,-420.53 1057.79,-525.18 971.5,-577.25 883.35,-630.45 836.38,-743.06 812.98,-824.12"/>
<polygon fill="black" stroke="black" points="809.71,-822.81 810.38,-833.39 816.45,-824.71 809.71,-822.81"/>
</g>
<!-- customer_enriched -->
<g id="node9" class="node">
<title>customer_enriched</title>
<polygon fill="lightblue" stroke="none" points="477.25,-1018.5 477.25,-1041 603.25,-1041 603.25,-1018.5 477.25,-1018.5"/>
<polygon fill="none" stroke="black" points="477.25,-1018.5 477.25,-1041 603.25,-1041 603.25,-1018.5 477.25,-1018.5"/>
<text xml:space="preserve" text-anchor="start" x="484.75" y="-1025.7" font-family="Times,serif" font-weight="bold" font-size="14.00">customer_enriched</text>
<polygon fill="none" stroke="black" points="477.25,-996 477.25,-1018.5 603.25,-1018.5 603.25,-996 477.25,-996"/>
<text xml:space="preserve" text-anchor="start" x="480.25" y="-1002.2" font-family="Times,serif" font-size="14.00">customer_id</text>
<polygon fill="none" stroke="black" points="477.25,-973.5 477.25,-996 603.25,-996 603.25,-973.5 477.25,-973.5"/>
<text xml:space="preserve" text-anchor="start" x="480.25" y="-979.7" font-family="Times,serif" font-size="14.00">customer_name</text>
<polygon fill="none" stroke="black" points="477.25,-951 477.25,-973.5 603.25,-973.5 603.25,-951 477.25,-951"/>
<text xml:space="preserve" text-anchor="start" x="480.25" y="-957.2" font-family="Times,serif" font-size="14.00">country</text>
<polygon fill="none" stroke="black" points="477.25,-928.5 477.25,-951 603.25,-951 603.25,-928.5 477.25,-928.5"/>
<text xml:space="preserve" text-anchor="start" x="480.25" y="-934.7" font-family="Times,serif" font-size="14.00">signup_date</text>
<polygon fill="none" stroke="black" points="477.25,-906 477.25,-928.5 603.25,-928.5 603.25,-906 477.25,-906"/>
<text xml:space="preserve" text-anchor="start" x="480.25" y="-912.2" font-family="Times,serif" font-size="14.00">total_orders</text>
<polygon fill="none" stroke="black" points="477.25,-883.5 477.25,-906 603.25,-906 603.25,-883.5 477.25,-883.5"/>
<text xml:space="preserve" text-anchor="start" x="480.25" y="-889.7" font-family="Times,serif" font-size="14.00">total_revenue</text>
<polygon fill="none" stroke="black" points="477.25,-861 477.25,-883.5 603.25,-883.5 603.25,-861 477.25,-861"/>
<text xml:space="preserve" text-anchor="start" x="480.25" y="-867.2" font-family="Times,serif" font-size="14.00">avg_order_value</text>
<polygon fill="none" stroke="black" points="477.25,-838.5 477.25,-861 603.25,-861 603.25,-838.5 477.25,-838.5"/>
<text xml:space="preserve" text-anchor="start" x="480.25" y="-844.7" font-family="Times,serif" font-size="14.00">first_order_date</text>
<polygon fill="none" stroke="black" points="477.25,-816 477.25,-838.5 603.25,-838.5 603.25,-816 477.25,-816"/>
<text xml:space="preserve" text-anchor="start" x="480.25" y="-822.2" font-family="Times,serif" font-size="14.00">last_order_date</text>
<polygon fill="none" stroke="black" points="477.25,-793.5 477.25,-816 603.25,-816 603.25,-793.5 477.25,-793.5"/>
<text xml:space="preserve" text-anchor="start" x="480.25" y="-799.7" font-family="Times,serif" font-size="14.00">days_since_last_order</text>
</g>
<!-- cleaned_orders&#45;&gt;customer_enriched -->
<g id="edge48" class="edge">
<title>cleaned_orders&#45;&gt;customer_enriched</title>
<path fill="none" stroke="black" d="M1690.74,-654.84C1632.6,-521.77 1486.54,-249.25 1265.38,-249.25 1024.25,-249.25 1024.25,-249.25 1024.25,-249.25 765.28,-249.25 631.09,-583.01 574.67,-778.69"/>
<polygon fill="black" stroke="black" points="571.34,-777.61 571.97,-788.18 578.07,-779.52 571.34,-777.61"/>
</g>
<!-- cleaned_orders&#45;&gt;customer_segmented -->
<g id="edge68" class="edge">
<title>cleaned_orders&#45;&gt;customer_segmented</title>
<path fill="none" stroke="black" d="M1708.3,-654.8C1691.14,-564.01 1649.62,-407.34 1557.25,-309.25 1459.4,-205.33 1408.12,-175.25 1265.38,-175.25 790.38,-175.25 790.38,-175.25 790.38,-175.25 511.31,-175.25 376.51,-542.57 321.68,-756.45"/>
<polygon fill="black" stroke="black" points="318.32,-755.44 319.26,-766 325.11,-757.16 318.32,-755.44"/>
</g>
<!-- db.raw_orders -->
<g id="node3" class="node">
<title>db.raw_orders</title>
<polygon fill="lightblue" stroke="none" points="1457.75,-94 1457.75,-116.5 1549.25,-116.5 1549.25,-94 1457.75,-94"/>
<polygon fill="none" stroke="black" points="1457.75,-94 1457.75,-116.5 1549.25,-116.5 1549.25,-94 1457.75,-94"/>
<text xml:space="preserve" text-anchor="start" x="1460.75" y="-101.2" font-family="Times,serif" font-weight="bold" font-size="14.00">db.raw_orders</text>
<polygon fill="none" stroke="black" points="1457.75,-71.5 1457.75,-94 1549.25,-94 1549.25,-71.5 1457.75,-71.5"/>
<text xml:space="preserve" text-anchor="start" x="1460.75" y="-77.7" font-family="Times,serif" font-size="14.00">order_id</text>
<polygon fill="none" stroke="black" points="1457.75,-49 1457.75,-71.5 1549.25,-71.5 1549.25,-49 1457.75,-49"/>
<text xml:space="preserve" text-anchor="start" x="1460.75" y="-55.2" font-family="Times,serif" font-size="14.00">customer_id</text>
<polygon fill="none" stroke="black" points="1457.75,-26.5 1457.75,-49 1549.25,-49 1549.25,-26.5 1457.75,-26.5"/>
<text xml:space="preserve" text-anchor="start" x="1460.75" y="-32.7" font-family="Times,serif" font-size="14.00">OrderDate</text>
<polygon fill="none" stroke="black" points="1457.75,-4 1457.75,-26.5 1549.25,-26.5 1549.25,-4 1457.75,-4"/>
<text xml:space="preserve" text-anchor="start" x="1460.75" y="-10.2" font-family="Times,serif" font-size="14.00">Quantity</text>
</g>
<!-- db.raw_orders&#45;&gt;cleaned_orders -->
<g id="edge9" class="edge">
<title>db.raw_orders&#45;&gt;cleaned_orders</title>
<path fill="none" stroke="black" d="M1543.85,-120.44C1548.75,-129.24 1553.39,-138.34 1557.25,-147.25 1630.84,-317.1 1680.15,-529.49 1703.51,-643.96"/>
<polygon fill="black" stroke="black" points="1700.04,-644.48 1705.46,-653.59 1706.91,-643.09 1700.04,-644.48"/>
</g>
<!-- valid_orders&#45;&gt;Scope_1 -->
<g id="edge2" class="edge">
<title>valid_orders&#45;&gt;Scope_1</title>
<path fill="none" stroke="black" d="M1491.6,-797.73C1458.79,-983.7 1342.92,-1468.25 1026.25,-1468.25 539.25,-1468.25 539.25,-1468.25 539.25,-1468.25 382.74,-1468.25 336.27,-1427.59 217,-1326.25 159.62,-1277.49 115.01,-1203.28 87.35,-1148.74"/>
<polygon fill="black" stroke="black" points="90.49,-1147.19 82.89,-1139.81 84.23,-1150.32 90.49,-1147.19"/>
</g>
<!-- valid_orders&#45;&gt;cleaned_orders -->
<g id="edge10" class="edge">
<title>valid_orders:order_id&#45;&gt;cleaned_orders:order_id</title>
<path fill="none" stroke="blue" d="M1543.88,-760C1596.92,-760 1612.98,-760 1660.82,-760"/>
<polygon fill="blue" stroke="blue" points="1660.74,-763.5 1670.74,-760 1660.74,-756.5 1660.74,-763.5"/>
</g>
<!-- valid_orders&#45;&gt;cleaned_orders -->
<g id="edge11" class="edge">
<title>valid_orders:customer_id&#45;&gt;cleaned_orders:customer_id</title>
<path fill="none" stroke="blue" d="M1543.88,-737.5C1596.92,-737.5 1612.98,-737.5 1660.82,-737.5"/>
<polygon fill="blue" stroke="blue" points="1660.74,-741 1670.74,-737.5 1660.74,-734 1660.74,-741"/>
</g>
<!-- valid_orders&#45;&gt;cleaned_orders -->
<g id="edge12" class="edge">
<title>valid_orders:order_date&#45;&gt;cleaned_orders:order_date</title>
<path fill="none" stroke="blue" d="M1543.88,-715C1596.92,-715 1612.98,-715 1660.82,-715"/>
<polygon fill="blue" stroke="blue" points="1660.74,-718.5 1670.74,-715 1660.74,-711.5 1660.74,-718.5"/>
</g>
<!-- valid_orders&#45;&gt;cleaned_orders -->
<g id="edge13" class="edge">
<title>valid_orders:amount&#45;&gt;cleaned_orders:amount</title>
<path fill="none" stroke="blue" d="M1543.88,-692.5C1596.92,-692.5 1612.98,-692.5 1660.82,-692.5"/>
<polygon fill="blue" stroke="blue" points="1660.74,-696 1670.74,-692.5 1660.74,-689 1660.74,-696"/>
</g>
<!-- valid_orders&#45;&gt;cleaned_orders -->
<g id="edge14" class="edge">
<title>valid_orders:order_status&#45;&gt;cleaned_orders:order_status</title>
<path fill="none" stroke="blue" d="M1543.88,-670C1596.92,-670 1612.98,-670 1660.82,-670"/>
<polygon fill="blue" stroke="blue" points="1660.74,-673.5 1670.74,-670 1660.74,-666.5 1660.74,-673.5"/>
</g>
<!-- valid_orders&#45;&gt;orders_with_payments -->
<g id="edge21" class="edge">
<title>valid_orders&#45;&gt;orders_with_payments</title>
<path fill="none" stroke="black" d="M1456.38,-727.75C1426.88,-733.31 1387.69,-743.18 1352.49,-753.67"/>
<polygon fill="black" stroke="black" points="1351.71,-750.25 1343.16,-756.5 1353.74,-756.95 1351.71,-750.25"/>
</g>
<!-- valid_orders&#45;&gt;orders_with_payments -->
<g id="edge22" class="edge">
<title>valid_orders&#45;&gt;orders_with_payments</title>
<path fill="none" stroke="black" d="M1456.38,-749.65C1426.88,-760.01 1387.69,-771.29 1352.49,-779.81"/>
<polygon fill="black" stroke="black" points="1352.11,-776.3 1343.18,-782.01 1353.72,-783.11 1352.11,-776.3"/>
</g>
<!-- valid_orders&#45;&gt;paid_orders -->
<g id="edge29" class="edge">
<title>valid_orders&#45;&gt;paid_orders</title>
<path fill="none" stroke="black" d="M1456.37,-786.66C1427.32,-820.06 1386.85,-859 1341.75,-880.25 1257.74,-919.83 1147.75,-923.35 1082.3,-921.12"/>
<polygon fill="black" stroke="black" points="1082.65,-917.64 1072.52,-920.73 1082.37,-924.63 1082.65,-917.64"/>
</g>
<!-- valid_orders&#45;&gt;customer_aggregates -->
<g id="edge38" class="edge">
<title>valid_orders&#45;&gt;customer_aggregates</title>
<path fill="none" stroke="black" d="M1456.21,-697.07C1359.7,-640.28 1132.54,-528.15 971.5,-619.25 894.54,-662.78 847.01,-754.06 820.42,-824.2"/>
<polygon fill="black" stroke="black" points="817.2,-822.81 817.01,-833.4 823.77,-825.24 817.2,-822.81"/>
</g>
<!-- valid_orders&#45;&gt;customer_enriched -->
<g id="edge49" class="edge">
<title>valid_orders&#45;&gt;customer_enriched</title>
<path fill="none" stroke="black" d="M1456.17,-668.62C1427.06,-637.07 1386.59,-600.9 1341.75,-583.25 1242.47,-544.18 1028.2,-557.55 971.5,-577.25 828.98,-626.76 698.04,-745.27 618.95,-828.37"/>
<polygon fill="black" stroke="black" points="616.59,-825.78 612.26,-835.45 621.68,-830.58 616.59,-825.78"/>
</g>
<!-- valid_orders&#45;&gt;customer_segmented -->
<g id="edge69" class="edge">
<title>valid_orders&#45;&gt;customer_segmented</title>
<path fill="none" stroke="black" d="M1459.22,-654.79C1431.15,-615.7 1390.72,-570.93 1341.75,-549.25 1191.27,-482.64 1134.45,-529.27 971.5,-552.25 742.39,-584.56 663.61,-563.71 469.25,-689.25 430.66,-714.17 396.26,-750.06 368.17,-785.5"/>
<polygon fill="black" stroke="black" points="365.47,-783.26 362.09,-793.3 371,-787.56 365.47,-783.26"/>
</g>
<!-- orders_with_payments&#45;&gt;Scope_1 -->
<g id="edge3" class="edge">
<title>orders_with_payments&#45;&gt;Scope_1</title>
<path fill="none" stroke="black" d="M1244.59,-861.61C1197.75,-1021.44 1059.82,-1394.25 792.38,-1394.25 539.25,-1394.25 539.25,-1394.25 539.25,-1394.25 359.77,-1394.25 194.88,-1239.9 111.85,-1146.95"/>
<polygon fill="black" stroke="black" points="114.56,-1144.74 105.32,-1139.56 109.32,-1149.37 114.56,-1144.74"/>
</g>
<!-- orders_with_payments&#45;&gt;valid_orders -->
<g id="edge16" class="edge">
<title>orders_with_payments:order_id&#45;&gt;valid_orders:order_id</title>
<path fill="none" stroke="blue" d="M1334.75,-824C1394.52,-824 1399.02,-767.75 1451.88,-760.72"/>
<polygon fill="blue" stroke="blue" points="1451.86,-764.23 1461.61,-760.1 1451.41,-757.24 1451.86,-764.23"/>
</g>
<!-- orders_with_payments&#45;&gt;valid_orders -->
<g id="edge17" class="edge">
<title>orders_with_payments:customer_id&#45;&gt;valid_orders:customer_id</title>
<path fill="none" stroke="blue" d="M1334.75,-801.5C1394.52,-801.5 1399.02,-745.25 1451.88,-738.22"/>
<polygon fill="blue" stroke="blue" points="1451.86,-741.73 1461.61,-737.6 1451.41,-734.74 1451.86,-741.73"/>
</g>
<!-- orders_with_payments&#45;&gt;valid_orders -->
<g id="edge18" class="edge">
<title>orders_with_payments:order_date&#45;&gt;valid_orders:order_date</title>
<path fill="none" stroke="blue" d="M1334.75,-779C1394.52,-779 1399.02,-722.75 1451.88,-715.72"/>
<polygon fill="blue" stroke="blue" points="1451.86,-719.23 1461.61,-715.1 1451.41,-712.24 1451.86,-719.23"/>
</g>
<!-- orders_with_payments&#45;&gt;valid_orders -->
<g id="edge19" class="edge">
<title>orders_with_payments:amount&#45;&gt;valid_orders:amount</title>
<path fill="none" stroke="blue" d="M1334.75,-756.5C1394.52,-756.5 1399.02,-700.25 1451.88,-693.22"/>
<polygon fill="blue" stroke="blue" points="1451.86,-696.73 1461.61,-692.6 1451.41,-689.74 1451.86,-696.73"/>
</g>
<!-- orders_with_payments&#45;&gt;paid_orders -->
<g id="edge30" class="edge">
<title>orders_with_payments&#45;&gt;paid_orders</title>
<path fill="none" stroke="black" d="M1187.26,-831.02C1152.6,-849.58 1112.36,-871.13 1080.78,-888.04"/>
<polygon fill="black" stroke="black" points="1079.35,-884.84 1072.19,-892.65 1082.65,-891.01 1079.35,-884.84"/>
</g>
<!-- orders_with_payments&#45;&gt;customer_aggregates -->
<g id="edge39" class="edge">
<title>orders_with_payments&#45;&gt;customer_aggregates</title>
<path fill="none" stroke="black" d="M1221.82,-861.58C1189.62,-909.22 1140.21,-967.98 1079,-995.25 1012.43,-1024.91 932.01,-998.05 873.32,-968.04"/>
<polygon fill="black" stroke="black" points="875.18,-965.06 864.69,-963.51 871.92,-971.26 875.18,-965.06"/>
</g>
<!-- orders_with_payments&#45;&gt;customer_enriched -->
<g id="edge50" class="edge">
<title>orders_with_payments&#45;&gt;customer_enriched</title>
<path fill="none" stroke="black" d="M1187.2,-782.94C1080.28,-775.12 880.72,-769.48 719.25,-816.25 684.91,-826.2 650.07,-843.92 620.43,-861.78"/>
<polygon fill="black" stroke="black" points="618.97,-858.57 612.28,-866.78 622.63,-864.53 618.97,-858.57"/>
</g>
<!-- orders_with_payments&#45;&gt;customer_segmented -->
<g id="edge70" class="edge">
<title>orders_with_payments&#45;&gt;customer_segmented</title>
<path fill="none" stroke="black" d="M1187.18,-763.69C1041.63,-717.47 716.52,-636.17 469.25,-735.25 431.49,-750.38 397.18,-777.68 368.92,-806.09"/>
<polygon fill="black" stroke="black" points="366.63,-803.43 362.17,-813.04 371.65,-808.3 366.63,-803.43"/>
</g>
<!-- raw_payments -->
<g id="node6" class="node">
<title>raw_payments</title>
<polygon fill="lightblue" stroke="none" points="979.5,-644 979.5,-666.5 1071,-666.5 1071,-644 979.5,-644"/>
<polygon fill="none" stroke="black" points="979.5,-644 979.5,-666.5 1071,-666.5 1071,-644 979.5,-644"/>
<text xml:space="preserve" text-anchor="start" x="982.5" y="-651.2" font-family="Times,serif" font-weight="bold" font-size="14.00">raw_payments</text>
</g>
<!-- raw_payments&#45;&gt;orders_with_payments -->
<g id="edge23" class="edge">
<title>raw_payments&#45;&gt;orders_with_payments</title>
<path fill="none" stroke="black" d="M1057.74,-673.18C1088.12,-690.47 1135.51,-717.45 1177.13,-741.15"/>
<polygon fill="black" stroke="black" points="1175.29,-744.13 1185.71,-746.03 1178.75,-738.04 1175.29,-744.13"/>
</g>
<!-- paid_orders&#45;&gt;Scope_1 -->
<g id="edge4" class="edge">
<title>paid_orders&#45;&gt;Scope_1</title>
<path fill="none" stroke="black" d="M979.71,-961.23C948.96,-989.87 906.09,-1026.54 863.5,-1052.25 663.84,-1172.78 593.38,-1181.72 361.25,-1204.25 297.44,-1210.44 277.63,-1225.1 217,-1204.25 180.12,-1191.57 145.21,-1166.63 117.34,-1142.27"/>
<polygon fill="black" stroke="black" points="119.84,-1139.8 110.05,-1135.75 115.17,-1145.02 119.84,-1139.8"/>
</g>
<!-- paid_orders&#45;&gt;orders_with_payments -->
<g id="edge24" class="edge">
<title>paid_orders:order_id&#45;&gt;orders_with_payments:order_id</title>
<path fill="none" stroke="blue" d="M1064.12,-939.75C1137.37,-939.75 1119.01,-835.89 1182.59,-824.93"/>
<polygon fill="blue" stroke="blue" points="1182.81,-828.43 1192.49,-824.12 1182.24,-821.45 1182.81,-828.43"/>
</g>
<!-- paid_orders&#45;&gt;orders_with_payments -->
<g id="edge25" class="edge">
<title>paid_orders:customer_id&#45;&gt;orders_with_payments:customer_id</title>
<path fill="none" stroke="blue" d="M1064.12,-917.25C1137.37,-917.25 1119.01,-813.39 1182.59,-802.43"/>
<polygon fill="blue" stroke="blue" points="1182.81,-805.93 1192.49,-801.62 1182.24,-798.95 1182.81,-805.93"/>
</g>
<!-- paid_orders&#45;&gt;orders_with_payments -->
<g id="edge26" class="edge">
<title>paid_orders:order_date&#45;&gt;orders_with_payments:order_date</title>
<path fill="none" stroke="blue" d="M1064.12,-894.75C1137.37,-894.75 1119.01,-790.89 1182.59,-779.93"/>
<polygon fill="blue" stroke="blue" points="1182.81,-783.43 1192.49,-779.12 1182.24,-776.45 1182.81,-783.43"/>
</g>
<!-- paid_orders&#45;&gt;orders_with_payments -->
<g id="edge27" class="edge">
<title>paid_orders:amount&#45;&gt;orders_with_payments:amount</title>
<path fill="none" stroke="blue" d="M1064.12,-872.25C1137.37,-872.25 1119.01,-768.39 1182.59,-757.43"/>
<polygon fill="blue" stroke="blue" points="1182.81,-760.93 1192.49,-756.62 1182.24,-753.95 1182.81,-760.93"/>
</g>
<!-- paid_orders&#45;&gt;customer_aggregates -->
<g id="edge40" class="edge">
<title>paid_orders&#45;&gt;customer_aggregates</title>
<path fill="none" stroke="black" d="M979.39,-906.32C949.66,-903.83 909.78,-903.15 874.48,-904.27"/>
<polygon fill="black" stroke="black" points="874.58,-900.77 864.72,-904.65 874.84,-907.76 874.58,-900.77"/>
</g>
<!-- paid_orders&#45;&gt;customer_aggregates -->
<g id="edge41" class="edge">
<title>paid_orders&#45;&gt;customer_aggregates</title>
<path fill="none" stroke="black" d="M979.39,-928.18C949.66,-930.67 909.78,-931.35 874.48,-930.23"/>
<polygon fill="black" stroke="black" points="874.84,-926.74 864.72,-929.85 874.58,-933.73 874.84,-926.74"/>
</g>
<!-- paid_orders&#45;&gt;customer_enriched -->
<g id="edge51" class="edge">
<title>paid_orders&#45;&gt;customer_enriched</title>
<path fill="none" stroke="black" d="M979.46,-955.1C948.94,-978.32 906.41,-1005.89 863.5,-1018.25 801.89,-1036 781.24,-1034.61 719.25,-1018.25 684.99,-1009.21 650.41,-991.88 620.96,-974.1"/>
<polygon fill="black" stroke="black" points="622.81,-971.13 612.46,-968.86 619.14,-977.09 622.81,-971.13"/>
</g>
<!-- paid_orders&#45;&gt;customer_segmented -->
<g id="edge71" class="edge">
<title>paid_orders&#45;&gt;customer_segmented</title>
<path fill="none" stroke="black" d="M979.64,-882.62C948.7,-860.31 905.62,-832.53 863.5,-816.25 699,-752.68 636.49,-715.28 469.25,-771.25 433.27,-783.29 398.74,-805.72 369.76,-828.88"/>
<polygon fill="black" stroke="black" points="367.65,-826.09 362.12,-835.13 372.08,-831.51 367.65,-826.09"/>
</g>
<!-- customer_aggregates&#45;&gt;Scope_1 -->
<g id="edge5" class="edge">
<title>customer_aggregates&#45;&gt;Scope_1</title>
<path fill="none" stroke="black" d="M725.85,-999.72C694.6,-1034.82 654.49,-1073.51 611.25,-1099.25 511.89,-1158.39 475.74,-1155.09 361.25,-1171.25 297.77,-1180.21 278.94,-1187.81 217,-1171.25 182.04,-1161.9 146.8,-1142.97 118.19,-1124.61"/>
<polygon fill="black" stroke="black" points="120.3,-1121.81 110.02,-1119.25 116.46,-1127.66 120.3,-1121.81"/>
</g>
<!-- customer_aggregates&#45;&gt;paid_orders -->
<g id="edge31" class="edge">
<title>customer_aggregates:total_orders&#45;&gt;paid_orders:order_id</title>
<path fill="none" stroke="blue" d="M856.5,-939.75C910.28,-939.75 926.48,-939.75 975.12,-939.75"/>
<polygon fill="blue" stroke="blue" points="974.86,-943.25 984.86,-939.75 974.86,-936.25 974.86,-943.25"/>
</g>
<!-- customer_aggregates&#45;&gt;paid_orders -->
<g id="edge32" class="edge">
<title>customer_aggregates:customer_id&#45;&gt;paid_orders:customer_id</title>
<path fill="none" stroke="blue" d="M856.5,-962.25C913.53,-962.25 924.03,-923.03 974.88,-917.82"/>
<polygon fill="blue" stroke="blue" points="975.05,-921.32 984.86,-917.32 974.7,-914.32 975.05,-921.32"/>
</g>
<!-- customer_aggregates&#45;&gt;paid_orders -->
<g id="edge33" class="edge">
<title>customer_aggregates:first_order_date&#45;&gt;paid_orders:order_date</title>
<path fill="none" stroke="blue" d="M856.5,-872.25C911.08,-872.25 925.84,-891.78 974.97,-894.45"/>
<polygon fill="blue" stroke="blue" points="974.77,-897.94 984.86,-894.71 974.96,-890.95 974.77,-897.94"/>
</g>
<!-- customer_aggregates&#45;&gt;paid_orders -->
<g id="edge34" class="edge">
<title>customer_aggregates:last_order_date&#45;&gt;paid_orders:order_date</title>
<path fill="none" stroke="blue" d="M856.5,-849.75C913.53,-849.75 924.03,-888.97 974.88,-894.18"/>
<polygon fill="blue" stroke="blue" points="974.7,-897.68 984.86,-894.68 975.05,-890.68 974.7,-897.68"/>
</g>
<!-- customer_aggregates&#45;&gt;paid_orders -->
<g id="edge35" class="edge">
<title>customer_aggregates:total_revenue&#45;&gt;paid_orders:amount</title>
<path fill="none" stroke="blue" d="M856.5,-917.25C913.53,-917.25 924.03,-878.03 974.88,-872.82"/>
<polygon fill="blue" stroke="blue" points="975.05,-876.32 984.86,-872.32 974.7,-869.32 975.05,-876.32"/>
</g>
<!-- customer_aggregates&#45;&gt;paid_orders -->
<g id="edge36" class="edge">
<title>customer_aggregates:avg_order_value&#45;&gt;paid_orders:amount</title>
<path fill="none" stroke="blue" d="M856.5,-894.75C911.08,-894.75 925.84,-875.22 974.97,-872.55"/>
<polygon fill="blue" stroke="blue" points="974.96,-876.05 984.86,-872.29 974.77,-869.06 974.96,-876.05"/>
</g>
<!-- customer_aggregates&#45;&gt;customer_enriched -->
<g id="edge52" class="edge">
<title>customer_aggregates&#45;&gt;customer_enriched</title>
<path fill="none" stroke="black" d="M719.37,-904.93C689.09,-903.51 653.6,-903.37 622.3,-904.51"/>
<polygon fill="black" stroke="black" points="622.33,-901.01 612.49,-904.92 622.63,-908 622.33,-901.01"/>
</g>
<!-- customer_aggregates&#45;&gt;customer_enriched -->
<g id="edge54" class="edge">
<title>customer_aggregates&#45;&gt;customer_enriched</title>
<path fill="none" stroke="black" d="M719.37,-929.57C689.09,-930.99 653.6,-931.13 622.3,-929.99"/>
<polygon fill="black" stroke="black" points="622.63,-926.5 612.49,-929.58 622.33,-933.49 622.63,-926.5"/>
</g>
<!-- customer_aggregates&#45;&gt;customer_segmented -->
<g id="edge72" class="edge">
<title>customer_aggregates&#45;&gt;customer_segmented</title>
<path fill="none" stroke="black" d="M719.64,-993.81C689.27,-1021.25 651.5,-1048.92 611.25,-1063.25 551.79,-1084.41 528.32,-1085.47 469.25,-1063.25 432.26,-1049.33 397.93,-1023.93 369.42,-997.55"/>
<polygon fill="black" stroke="black" points="371.92,-995.1 362.25,-990.76 367.1,-1000.18 371.92,-995.1"/>
</g>
<!-- customer_enriched&#45;&gt;Scope_1 -->
<g id="edge6" class="edge">
<title>customer_enriched&#45;&gt;Scope_1</title>
<path fill="none" stroke="black" d="M469.4,-1039.84C441.1,-1077.59 404.73,-1114.62 361.25,-1135.25 283.15,-1172.31 183.17,-1140.73 119.21,-1111.86"/>
<polygon fill="black" stroke="black" points="120.79,-1108.74 110.24,-1107.71 117.85,-1115.09 120.79,-1108.74"/>
</g>
<!-- customer_enriched&#45;&gt;customer_aggregates -->
<g id="edge42" class="edge">
<title>customer_enriched:total_orders&#45;&gt;customer_aggregates:total_orders</title>
<path fill="none" stroke="blue" d="M604.25,-917.25C655.4,-917.25 669.19,-936.62 714.94,-939.41"/>
<polygon fill="blue" stroke="blue" points="714.64,-942.91 724.74,-939.71 714.85,-935.91 714.64,-942.91"/>
</g>
<!-- customer_enriched&#45;&gt;customer_aggregates -->
<g id="edge43" class="edge">
<title>customer_enriched:total_revenue&#45;&gt;customer_aggregates:total_revenue</title>
<path fill="none" stroke="blue" d="M604.25,-894.75C655.4,-894.75 669.19,-914.12 714.94,-916.91"/>
<polygon fill="blue" stroke="blue" points="714.64,-920.41 724.74,-917.21 714.85,-913.41 714.64,-920.41"/>
</g>
<!-- customer_enriched&#45;&gt;customer_aggregates -->
<g id="edge44" class="edge">
<title>customer_enriched:avg_order_value&#45;&gt;customer_aggregates:avg_order_value</title>
<path fill="none" stroke="blue" d="M604.25,-872.25C655.4,-872.25 669.19,-891.62 714.94,-894.41"/>
<polygon fill="blue" stroke="blue" points="714.64,-897.91 724.74,-894.71 714.85,-890.91 714.64,-897.91"/>
</g>
<!-- customer_enriched&#45;&gt;customer_aggregates -->
<g id="edge45" class="edge">
<title>customer_enriched:first_order_date&#45;&gt;customer_aggregates:first_order_date</title>
<path fill="none" stroke="blue" d="M604.25,-849.75C655.4,-849.75 669.19,-869.12 714.94,-871.91"/>
<polygon fill="blue" stroke="blue" points="714.64,-875.41 724.74,-872.21 714.85,-868.41 714.64,-875.41"/>
</g>
<!-- customer_enriched&#45;&gt;customer_aggregates -->
<g id="edge46" class="edge">
<title>customer_enriched:last_order_date&#45;&gt;customer_aggregates:last_order_date</title>
<path fill="none" stroke="blue" d="M604.25,-827.25C655.4,-827.25 669.19,-846.62 714.94,-849.41"/>
<polygon fill="blue" stroke="blue" points="714.64,-852.91 724.74,-849.71 714.85,-845.91 714.64,-852.91"/>
</g>
<!-- customer_enriched&#45;&gt;customer_aggregates -->
<g id="edge47" class="edge">
<title>customer_enriched:days_since_last_order&#45;&gt;customer_aggregates:last_order_date</title>
<path fill="none" stroke="blue" d="M604.25,-804.75C657.98,-804.75 667.3,-843.64 714.79,-849.11"/>
<polygon fill="blue" stroke="blue" points="714.56,-852.61 724.74,-849.67 714.95,-845.62 714.56,-852.61"/>
</g>
<!-- customer_enriched&#45;&gt;customer_segmented -->
<g id="edge73" class="edge">
<title>customer_enriched&#45;&gt;customer_segmented</title>
<path fill="none" stroke="black" d="M469.39,-901.9C439.3,-899.12 403.9,-897.39 372.54,-897.1"/>
<polygon fill="black" stroke="black" points="372.71,-893.6 362.69,-897.07 372.68,-900.6 372.71,-893.6"/>
</g>
<!-- customer_enriched&#45;&gt;customer_segmented -->
<g id="edge74" class="edge">
<title>customer_enriched&#45;&gt;customer_segmented</title>
<path fill="none" stroke="black" d="M469.39,-926.43C439.3,-926.55 403.9,-925.16 372.54,-922.68"/>
<polygon fill="black" stroke="black" points="372.95,-919.2 362.69,-921.84 372.36,-926.17 372.95,-919.2"/>
</g>
<!-- raw_customers -->
<g id="node10" class="node">
<title>raw_customers</title>
<polygon fill="lightblue" stroke="none" points="241.88,-1088 241.88,-1110.5 336.38,-1110.5 336.38,-1088 241.88,-1088"/>
<polygon fill="none" stroke="black" points="241.88,-1088 241.88,-1110.5 336.38,-1110.5 336.38,-1088 241.88,-1088"/>
<text xml:space="preserve" text-anchor="start" x="244.88" y="-1095.2" font-family="Times,serif" font-weight="bold" font-size="14.00">raw_customers</text>
</g>
<!-- raw_customers&#45;&gt;customer_enriched -->
<g id="edge53" class="edge">
<title>raw_customers&#45;&gt;customer_enriched</title>
<path fill="none" stroke="black" d="M329.37,-1081.31C339.98,-1075.95 351.28,-1069.75 361.25,-1063.25 395.53,-1040.9 430.87,-1013.07 460.93,-987.72"/>
<polygon fill="black" stroke="black" points="463.16,-990.42 468.52,-981.28 458.63,-985.08 463.16,-990.42"/>
</g>
<!-- customer_segmented&#45;&gt;Scope_1 -->
<g id="edge7" class="edge">
<title>customer_segmented&#45;&gt;Scope_1</title>
<path fill="none" stroke="black" d="M217.36,-946.04C185.6,-968.11 148.45,-995.72 117.76,-1020.11"/>
<polygon fill="black" stroke="black" points="115.67,-1017.3 110.05,-1026.28 120.04,-1022.76 115.67,-1017.3"/>
</g>
<!-- customer_segmented&#45;&gt;Scope_1 -->
<g id="edge8" class="edge">
<title>customer_segmented&#45;&gt;Scope_1</title>
<path fill="none" stroke="black" d="M217.36,-971.11C185.73,-995.9 148.77,-1023.1 118.15,-1044.06"/>
<polygon fill="black" stroke="black" points="116.43,-1040.99 110.12,-1049.5 120.36,-1046.79 116.43,-1040.99"/>
</g>
<!-- customer_segmented&#45;&gt;customer_enriched -->
<g id="edge55" class="edge">
<title>customer_segmented:customer_id&#45;&gt;customer_enriched:customer_id</title>
<path fill="none" stroke="blue" d="M354.25,-1007.5C404.45,-1007.5 419.79,-1007.29 464.82,-1007.25"/>
<polygon fill="blue" stroke="blue" points="464.74,-1010.75 474.74,-1007.25 464.74,-1003.75 464.74,-1010.75"/>
</g>
<!-- customer_segmented&#45;&gt;customer_enriched -->
<g id="edge56" class="edge">
<title>customer_segmented:customer_name&#45;&gt;customer_enriched:customer_name</title>
<path fill="none" stroke="blue" d="M354.25,-985C404.45,-985 419.79,-984.79 464.82,-984.75"/>
<polygon fill="blue" stroke="blue" points="464.74,-988.25 474.74,-984.75 464.74,-981.25 464.74,-988.25"/>
</g>
<!-- customer_segmented&#45;&gt;customer_enriched -->
<g id="edge57" class="edge">
<title>customer_segmented:country&#45;&gt;customer_enriched:country</title>
<path fill="none" stroke="blue" d="M354.25,-962.5C404.45,-962.5 419.79,-962.29 464.82,-962.25"/>
<polygon fill="blue" stroke="blue" points="464.74,-965.75 474.74,-962.25 464.74,-958.75 464.74,-965.75"/>
</g>
<!-- customer_segmented&#45;&gt;customer_enriched -->
<g id="edge58" class="edge">
<title>customer_segmented:signup_date&#45;&gt;customer_enriched:signup_date</title>
<path fill="none" stroke="blue" d="M354.25,-940C404.45,-940 419.79,-939.79 464.82,-939.75"/>
<polygon fill="blue" stroke="blue" points="464.74,-943.25 474.74,-939.75 464.74,-936.25 464.74,-943.25"/>
</g>
<!-- customer_segmented&#45;&gt;customer_enriched -->
<g id="edge59" class="edge">
<title>customer_segmented:total_orders&#45;&gt;customer_enriched:total_orders</title>
<path fill="none" stroke="blue" d="M354.25,-917.5C404.45,-917.5 419.79,-917.29 464.82,-917.25"/>
<polygon fill="blue" stroke="blue" points="464.74,-920.75 474.74,-917.25 464.74,-913.75 464.74,-920.75"/>
</g>
<!-- customer_segmented&#45;&gt;customer_enriched -->
<g id="edge60" class="edge">
<title>customer_segmented:customer_segment&#45;&gt;customer_enriched:total_orders</title>
<path fill="none" stroke="blue" d="M354.25,-782.5C430.94,-782.5 399.17,-903.91 464.84,-916.24"/>
<polygon fill="blue" stroke="blue" points="464.47,-919.72 474.74,-917.12 465.09,-912.75 464.47,-919.72"/>
</g>
<!-- customer_segmented&#45;&gt;customer_enriched -->
<g id="edge61" class="edge">
<title>customer_segmented:total_revenue&#45;&gt;customer_enriched:total_revenue</title>
<path fill="none" stroke="blue" d="M354.25,-895C404.45,-895 419.79,-894.79 464.82,-894.75"/>
<polygon fill="blue" stroke="blue" points="464.74,-898.25 474.74,-894.75 464.74,-891.25 464.74,-898.25"/>
</g>
<!-- customer_segmented&#45;&gt;customer_enriched -->
<g id="edge62" class="edge">
<title>customer_segmented:customer_segment&#45;&gt;customer_enriched:total_revenue</title>
<path fill="none" stroke="blue" d="M354.25,-782.5C423.9,-782.5 405.05,-882.81 465.02,-893.78"/>
<polygon fill="blue" stroke="blue" points="464.48,-897.25 474.74,-894.62 465.08,-890.27 464.48,-897.25"/>
</g>
<!-- customer_segmented&#45;&gt;customer_enriched -->
<g id="edge63" class="edge">
<title>customer_segmented:avg_order_value&#45;&gt;customer_enriched:avg_order_value</title>
<path fill="none" stroke="blue" d="M354.25,-872.5C404.45,-872.5 419.79,-872.29 464.82,-872.25"/>
<polygon fill="blue" stroke="blue" points="464.74,-875.75 474.74,-872.25 464.74,-868.75 464.74,-875.75"/>
</g>
<!-- customer_segmented&#45;&gt;customer_enriched -->
<g id="edge64" class="edge">
<title>customer_segmented:first_order_date&#45;&gt;customer_enriched:first_order_date</title>
<path fill="none" stroke="blue" d="M354.25,-850C404.45,-850 419.79,-849.79 464.82,-849.75"/>
<polygon fill="blue" stroke="blue" points="464.74,-853.25 474.74,-849.75 464.74,-846.25 464.74,-853.25"/>
</g>
<!-- customer_segmented&#45;&gt;customer_enriched -->
<g id="edge65" class="edge">
<title>customer_segmented:last_order_date&#45;&gt;customer_enriched:last_order_date</title>
<path fill="none" stroke="blue" d="M354.25,-827.5C404.45,-827.5 419.79,-827.29 464.82,-827.25"/>
<polygon fill="blue" stroke="blue" points="464.74,-830.75 474.74,-827.25 464.74,-823.75 464.74,-830.75"/>
</g>
<!-- customer_segmented&#45;&gt;customer_enriched -->
<g id="edge66" class="edge">
<title>customer_segmented:days_since_last_order&#45;&gt;customer_enriched:days_since_last_order</title>
<path fill="none" stroke="blue" d="M354.25,-805C404.45,-805 419.79,-804.79 464.82,-804.75"/>
<polygon fill="blue" stroke="blue" points="464.74,-808.25 474.74,-804.75 464.74,-801.25 464.74,-808.25"/>
</g>
<!-- customer_segmented&#45;&gt;customer_enriched -->
<g id="edge67" class="edge">
<title>customer_segmented:customer_segment&#45;&gt;customer_enriched:days_since_last_order</title>
<path fill="none" stroke="blue" d="M354.25,-782.5C405.38,-782.5 419.21,-801.65 464.95,-804.42"/>
<polygon fill="blue" stroke="blue" points="464.64,-807.91 474.74,-804.71 464.84,-800.91 464.64,-807.91"/>
</g>
</g>
</svg>
