<?xml version="1.0" encoding="UTF-8" standalone="no"?>
<!DOCTYPE svg PUBLIC "-//W3C//DTD SVG 1.1//EN"
 "http://www.w3.org/Graphics/SVG/1.1/DTD/svg11.dtd">
<!-- Generated by graphviz version 14.1.1 (20251213.1925)
 -->
<!-- Pages: 1 -->
<svg width="621pt" height="384pt"
 viewBox="0.00 0.00 621.00 384.00" xmlns="http://www.w3.org/2000/svg" xmlns:xlink="http://www.w3.org/1999/xlink">
<g id="graph0" class="graph" transform="scale(1 1) rotate(0) translate(4 380)">
<polygon fill="white" stroke="none" points="-4,4 -4,-380 617,-380 617,4 -4,4"/>
<!-- Scope_1 -->
<g id="node1" class="node">
<title>Scope_1</title>
<polygon fill="lightblue" stroke="none" points="8,-140 8,-162.5 61.25,-162.5 61.25,-140 8,-140"/>
<polygon fill="none" stroke="black" points="8,-140 8,-162.5 61.25,-162.5 61.25,-140 8,-140"/>
<text xml:space="preserve" text-anchor="start" x="11" y="-147.2" font-family="Times,serif" font-weight="bold" font-size="14.00">Scope_1</text>
<polygon fill="none" stroke="black" points="8,-117.5 8,-140 61.25,-140 61.25,-117.5 8,-117.5"/>
<text xml:space="preserve" text-anchor="start" x="11" y="-123.7" font-family="Times,serif" font-size="14.00">id</text>
</g>
<!-- u -->
<g id="node2" class="node">
<title>u</title>
<polygon fill="lightblue" stroke="none" points="199.88,-151.5 199.88,-174 235.88,-174 235.88,-151.5 199.88,-151.5"/>
<polygon fill="none" stroke="black" points="199.88,-151.5 199.88,-174 235.88,-174 235.88,-151.5 199.88,-151.5"/>
<text xml:space="preserve" text-anchor="start" x="214.12" y="-158.7" font-family="Times,serif" font-weight="bold" font-size="14.00">u</text>
<polygon fill="none" stroke="black" points="199.88,-129 199.88,-151.5 235.88,-151.5 235.88,-129 199.88,-129"/>
<text xml:space="preserve" text-anchor="start" x="202.88" y="-135.2" font-family="Times,serif" font-size="14.00">id</text>
<polygon fill="none" stroke="black" points="199.88,-106.5 199.88,-129 235.88,-129 235.88,-106.5 199.88,-106.5"/>
<text xml:space="preserve" text-anchor="start" x="202.88" y="-112.7" font-family="Times,serif" font-size="14.00">name</text>
<polygon fill="none" stroke="black" points="199.88,-84 199.88,-106.5 235.88,-106.5 235.88,-84 199.88,-84"/>
<text xml:space="preserve" text-anchor="start" x="202.88" y="-90.2" font-family="Times,serif" font-size="14.00">age</text>
</g>
<!-- Scope_1&#45;&gt;u -->
<g id="edge4" class="edge">
<title>Scope_1:id&#45;&gt;u:id</title>
<path fill="none" stroke="blue" d="M62.25,-128.75C119.26,-128.75 135.84,-138.82 187.64,-140.11"/>
<polygon fill="blue" stroke="blue" points="187.32,-143.61 197.36,-140.23 187.41,-136.61 187.32,-143.61"/>
</g>
<!-- u&#45;&gt;Scope_1 -->
<g id="edge1" class="edge">
<title>u&#45;&gt;Scope_1</title>
<path fill="none" stroke="black" d="M190.88,-130.58C162.02,-132.33 114.91,-135.19 80.14,-137.3"/>
<polygon fill="black" stroke="black" points="80.15,-133.79 70.38,-137.89 80.57,-140.78 80.15,-133.79"/>
</g>
<!-- Scope_2 -->
<g id="node3" class="node">
<title>Scope_2</title>
<polygon fill="lightblue" stroke="none" points="374.5,-143.5 374.5,-166 427.75,-166 427.75,-143.5 374.5,-143.5"/>
<polygon fill="none" stroke="black" points="374.5,-143.5 374.5,-166 427.75,-166 427.75,-143.5 374.5,-143.5"/>
<text xml:space="preserve" text-anchor="start" x="377.5" y="-150.7" font-family="Times,serif" font-weight="bold" font-size="14.00">Scope_2</text>
<polygon fill="none" stroke="black" points="374.5,-121 374.5,-143.5 427.75,-143.5 427.75,-121 374.5,-121"/>
<text xml:space="preserve" text-anchor="start" x="377.5" y="-127.2" font-family="Times,serif" font-size="14.00">id</text>
<polygon fill="none" stroke="black" points="374.5,-98.5 374.5,-121 427.75,-121 427.75,-98.5 374.5,-98.5"/>
<text xml:space="preserve" text-anchor="start" x="377.5" y="-104.7" font-family="Times,serif" font-size="14.00">name</text>
<polygon fill="none" stroke="black" points="374.5,-76 374.5,-98.5 427.75,-98.5 427.75,-76 374.5,-76"/>
<text xml:space="preserve" text-anchor="start" x="377.5" y="-82.2" font-family="Times,serif" font-size="14.00">age</text>
</g>
<!-- u&#45;&gt;Scope_2 -->
<g id="edge7" class="edge">
<title>u:id&#45;&gt;Scope_2:id</title>
<path fill="none" stroke="blue" d="M236.88,-140.25C293.78,-140.25 310.55,-133.25 362.29,-132.35"/>
<polygon fill="blue" stroke="blue" points="362.02,-135.85 371.99,-132.26 361.96,-128.85 362.02,-135.85"/>
</g>
<!-- u&#45;&gt;Scope_2 -->
<g id="edge8" class="edge">
<title>u:name&#45;&gt;Scope_2:name</title>
<path fill="none" stroke="blue" d="M236.88,-117.75C293.78,-117.75 310.55,-110.75 362.29,-109.85"/>
<polygon fill="blue" stroke="blue" points="362.02,-113.35 371.99,-109.76 361.96,-106.35 362.02,-113.35"/>
</g>
<!-- u&#45;&gt;Scope_2 -->
<g id="edge9" class="edge">
<title>u:age&#45;&gt;Scope_2:age</title>
<path fill="none" stroke="blue" d="M236.88,-95.25C293.78,-95.25 310.55,-88.25 362.29,-87.35"/>
<polygon fill="blue" stroke="blue" points="362.02,-90.85 371.99,-87.26 361.96,-83.85 362.02,-90.85"/>
</g>
<!-- Scope_5 -->
<g id="node8" class="node">
<title>Scope_5</title>
<polygon fill="lightblue" stroke="none" points="374.5,-277.5 374.5,-300 427.75,-300 427.75,-277.5 374.5,-277.5"/>
<polygon fill="none" stroke="black" points="374.5,-277.5 374.5,-300 427.75,-300 427.75,-277.5 374.5,-277.5"/>
<text xml:space="preserve" text-anchor="start" x="377.5" y="-284.7" font-family="Times,serif" font-weight="bold" font-size="14.00">Scope_5</text>
<polygon fill="none" stroke="black" points="374.5,-255 374.5,-277.5 427.75,-277.5 427.75,-255 374.5,-255"/>
<text xml:space="preserve" text-anchor="start" x="377.5" y="-261.2" font-family="Times,serif" font-size="14.00">id</text>
<polygon fill="none" stroke="black" points="374.5,-232.5 374.5,-255 427.75,-255 427.75,-232.5 374.5,-232.5"/>
<text xml:space="preserve" text-anchor="start" x="377.5" y="-238.7" font-family="Times,serif" font-size="14.00">name</text>
<polygon fill="none" stroke="black" points="374.5,-210 374.5,-232.5 427.75,-232.5 427.75,-210 374.5,-210"/>
<text xml:space="preserve" text-anchor="start" x="377.5" y="-216.2" font-family="Times,serif" font-size="14.00">age</text>
</g>
<!-- u&#45;&gt;Scope_5 -->
<g id="edge20" class="edge">
<title>u:id&#45;&gt;Scope_5:id</title>
<path fill="none" stroke="blue" d="M236.88,-140.25C315.44,-140.25 293.42,-254.25 362.17,-265.38"/>
<polygon fill="blue" stroke="blue" points="361.75,-268.86 371.99,-266.13 362.29,-261.88 361.75,-268.86"/>
</g>
<!-- u&#45;&gt;Scope_5 -->
<g id="edge21" class="edge">
<title>u:name&#45;&gt;Scope_5:name</title>
<path fill="none" stroke="blue" d="M236.88,-117.75C315.44,-117.75 293.42,-231.75 362.17,-242.88"/>
<polygon fill="blue" stroke="blue" points="361.75,-246.36 371.99,-243.63 362.29,-239.38 361.75,-246.36"/>
</g>
<!-- u&#45;&gt;Scope_5 -->
<g id="edge22" class="edge">
<title>u:age&#45;&gt;Scope_5:age</title>
<path fill="none" stroke="blue" d="M236.88,-95.25C315.44,-95.25 293.42,-209.25 362.17,-220.38"/>
<polygon fill="blue" stroke="blue" points="361.75,-223.86 371.99,-221.13 362.29,-216.88 361.75,-223.86"/>
</g>
<!-- Scope_2&#45;&gt;u -->
<g id="edge2" class="edge">
<title>Scope_2&#45;&gt;u</title>
<path fill="none" stroke="black" d="M366.81,-122.47C335.49,-123.85 288.68,-125.92 256.13,-127.36"/>
<polygon fill="black" stroke="black" points="256.19,-123.85 246.36,-127.79 256.5,-130.84 256.19,-123.85"/>
</g>
<!-- Scope_3 -->
<g id="node4" class="node">
<title>Scope_3</title>
<polygon fill="lightblue" stroke="none" points="551.75,-225.5 551.75,-248 605,-248 605,-225.5 551.75,-225.5"/>
<polygon fill="none" stroke="black" points="551.75,-225.5 551.75,-248 605,-248 605,-225.5 551.75,-225.5"/>
<text xml:space="preserve" text-anchor="start" x="554.75" y="-232.7" font-family="Times,serif" font-weight="bold" font-size="14.00">Scope_3</text>
<polygon fill="none" stroke="black" points="551.75,-203 551.75,-225.5 605,-225.5 605,-203 551.75,-203"/>
<text xml:space="preserve" text-anchor="start" x="554.75" y="-209.2" font-family="Times,serif" font-size="14.00">id</text>
<polygon fill="none" stroke="black" points="551.75,-180.5 551.75,-203 605,-203 605,-180.5 551.75,-180.5"/>
<text xml:space="preserve" text-anchor="start" x="554.75" y="-186.7" font-family="Times,serif" font-size="14.00">name</text>
<polygon fill="none" stroke="black" points="551.75,-158 551.75,-180.5 605,-180.5 605,-158 551.75,-158"/>
<text xml:space="preserve" text-anchor="start" x="554.75" y="-164.2" font-family="Times,serif" font-size="14.00">age</text>
</g>
<!-- Scope_2&#45;&gt;Scope_3 -->
<g id="edge11" class="edge">
<title>Scope_2:id&#45;&gt;Scope_3:id</title>
<path fill="none" stroke="blue" d="M428.75,-132.25C490,-132.25 486.21,-204.32 539.33,-213.33"/>
<polygon fill="blue" stroke="blue" points="538.99,-216.81 549.24,-214.13 539.56,-209.84 538.99,-216.81"/>
</g>
<!-- Scope_2&#45;&gt;Scope_3 -->
<g id="edge12" class="edge">
<title>Scope_2:name&#45;&gt;Scope_3:name</title>
<path fill="none" stroke="blue" d="M428.75,-109.75C490,-109.75 486.21,-181.82 539.33,-190.83"/>
<polygon fill="blue" stroke="blue" points="538.99,-194.31 549.24,-191.63 539.56,-187.34 538.99,-194.31"/>
</g>
<!-- Scope_2&#45;&gt;Scope_3 -->
<g id="edge13" class="edge">
<title>Scope_2:age&#45;&gt;Scope_3:age</title>
<path fill="none" stroke="blue" d="M428.75,-87.25C490,-87.25 486.21,-159.32 539.33,-168.33"/>
<polygon fill="blue" stroke="blue" points="538.99,-171.81 549.24,-169.13 539.56,-164.84 538.99,-171.81"/>
</g>
<!-- Scope_4 -->
<g id="node6" class="node">
<title>Scope_4</title>
<polygon fill="lightblue" stroke="none" points="551.75,-91.5 551.75,-114 605,-114 605,-91.5 551.75,-91.5"/>
<polygon fill="none" stroke="black" points="551.75,-91.5 551.75,-114 605,-114 605,-91.5 551.75,-91.5"/>
<text xml:space="preserve" text-anchor="start" x="554.75" y="-98.7" font-family="Times,serif" font-weight="bold" font-size="14.00">Scope_4</text>
<polygon fill="none" stroke="black" points="551.75,-69 551.75,-91.5 605,-91.5 605,-69 551.75,-69"/>
<text xml:space="preserve" text-anchor="start" x="554.75" y="-75.2" font-family="Times,serif" font-size="14.00">id</text>
<polygon fill="none" stroke="black" points="551.75,-46.5 551.75,-69 605,-69 605,-46.5 551.75,-46.5"/>
<text xml:space="preserve" text-anchor="start" x="554.75" y="-52.7" font-family="Times,serif" font-size="14.00">name</text>
<polygon fill="none" stroke="black" points="551.75,-24 551.75,-46.5 605,-46.5 605,-24 551.75,-24"/>
<text xml:space="preserve" text-anchor="start" x="554.75" y="-30.2" font-family="Times,serif" font-size="14.00">age</text>
</g>
<!-- Scope_2&#45;&gt;Scope_4 -->
<g id="edge15" class="edge">
<title>Scope_2:id&#45;&gt;Scope_4:id</title>
<path fill="none" stroke="blue" d="M428.75,-132.25C483.66,-132.25 490.99,-87.12 539.4,-80.95"/>
<polygon fill="blue" stroke="blue" points="539.47,-84.45 549.24,-80.34 539.04,-77.46 539.47,-84.45"/>
</g>
<!-- Scope_2&#45;&gt;Scope_4 -->
<g id="edge16" class="edge">
<title>Scope_2:name&#45;&gt;Scope_4:name</title>
<path fill="none" stroke="blue" d="M428.75,-109.75C483.66,-109.75 490.99,-64.62 539.4,-58.45"/>
<polygon fill="blue" stroke="blue" points="539.47,-61.95 549.24,-57.84 539.04,-54.96 539.47,-61.95"/>
</g>
<!-- Scope_2&#45;&gt;Scope_4 -->
<g id="edge17" class="edge">
<title>Scope_2:age&#45;&gt;Scope_4:age</title>
<path fill="none" stroke="blue" d="M428.75,-87.25C483.66,-87.25 490.99,-42.12 539.4,-35.95"/>
<polygon fill="blue" stroke="blue" points="539.47,-39.45 549.24,-35.34 539.04,-32.46 539.47,-39.45"/>
</g>
<!-- Scope_3&#45;&gt;Scope_2 -->
<g id="edge5" class="edge">
<title>Scope_3&#45;&gt;Scope_2</title>
<path fill="none" stroke="black" d="M543.83,-187.3C515.97,-174.27 476.14,-155.63 445.8,-141.44"/>
<polygon fill="black" stroke="black" points="447.41,-138.33 436.87,-137.26 444.45,-144.67 447.41,-138.33"/>
</g>
<!-- table1 -->
<g id="node5" class="node">
<title>table1</title>
<polygon fill="lightblue" stroke="none" points="380.5,-346.75 380.5,-369.25 421.75,-369.25 421.75,-346.75 380.5,-346.75"/>
<polygon fill="none" stroke="black" points="380.5,-346.75 380.5,-369.25 421.75,-369.25 421.75,-346.75 380.5,-346.75"/>
<text xml:space="preserve" text-anchor="start" x="383.5" y="-353.95" font-family="Times,serif" font-weight="bold" font-size="14.00">table1</text>
</g>
<!-- table1&#45;&gt;Scope_3 -->
<g id="edge10" class="edge">
<title>table1&#45;&gt;Scope_3</title>
<path fill="none" stroke="black" d="M422.23,-340.22C449.78,-315.85 499.93,-271.5 535.75,-239.81"/>
<polygon fill="black" stroke="black" points="537.77,-242.7 542.94,-233.46 533.13,-237.46 537.77,-242.7"/>
</g>
<!-- Scope_4&#45;&gt;Scope_2 -->
<g id="edge6" class="edge">
<title>Scope_4&#45;&gt;Scope_2</title>
<path fill="none" stroke="black" d="M543.83,-78.95C516.09,-87.18 476.49,-98.93 446.2,-107.92"/>
<polygon fill="black" stroke="black" points="445.54,-104.47 436.95,-110.67 447.53,-111.18 445.54,-104.47"/>
</g>
<!-- table2 -->
<g id="node7" class="node">
<title>table2</title>
<polygon fill="lightblue" stroke="none" points="380.5,-6.75 380.5,-29.25 421.75,-29.25 421.75,-6.75 380.5,-6.75"/>
<polygon fill="none" stroke="black" points="380.5,-6.75 380.5,-29.25 421.75,-29.25 421.75,-6.75 380.5,-6.75"/>
<text xml:space="preserve" text-anchor="start" x="383.5" y="-13.95" font-family="Times,serif" font-weight="bold" font-size="14.00">table2</text>
</g>
<!-- table2&#45;&gt;Scope_4 -->
<g id="edge14" class="edge">
<title>table2&#45;&gt;Scope_4</title>
<path fill="none" stroke="black" d="M429.51,-25.97C457.15,-34.01 500.3,-46.57 532.86,-56.05"/>
<polygon fill="black" stroke="black" points="531.86,-59.4 542.44,-58.83 533.82,-52.68 531.86,-59.4"/>
</g>
<!-- Scope_5&#45;&gt;u -->
<g id="edge3" class="edge">
<title>Scope_5&#45;&gt;u</title>
<path fill="none" stroke="black" d="M366.81,-231.84C334.81,-209.59 286.62,-176.1 254.01,-153.43"/>
<polygon fill="black" stroke="black" points="256.3,-150.75 246.09,-147.92 252.3,-156.5 256.3,-150.75"/>
</g>
<!-- orders -->
<g id="node9" class="node">
<title>orders</title>
<polygon fill="lightblue" stroke="none" points="196.12,-235.75 196.12,-258.25 239.62,-258.25 239.62,-235.75 196.12,-235.75"/>
<polygon fill="none" stroke="black" points="196.12,-235.75 196.12,-258.25 239.62,-258.25 239.62,-235.75 196.12,-235.75"/>
<text xml:space="preserve" text-anchor="start" x="199.12" y="-242.95" font-family="Times,serif" font-weight="bold" font-size="14.00">orders</text>
</g>
<!-- orders&#45;&gt;Scope_5 -->
<g id="edge18" class="edge">
<title>orders&#45;&gt;Scope_5</title>
<path fill="none" stroke="black" d="M247.59,-248.27C276.53,-249.54 321.58,-251.53 355.23,-253.02"/>
<polygon fill="black" stroke="black" points="354.96,-256.51 365.1,-253.45 355.27,-249.52 354.96,-256.51"/>
</g>
<!-- customers -->
<g id="node10" class="node">
<title>customers</title>
<polygon fill="lightblue" stroke="none" points="185.25,-307.75 185.25,-330.25 250.5,-330.25 250.5,-307.75 185.25,-307.75"/>
<polygon fill="none" stroke="black" points="185.25,-307.75 185.25,-330.25 250.5,-330.25 250.5,-307.75 185.25,-307.75"/>
<text xml:space="preserve" text-anchor="start" x="188.25" y="-314.95" font-family="Times,serif" font-weight="bold" font-size="14.00">customers</text>
</g>
<!-- customers&#45;&gt;Scope_5 -->
<g id="edge19" class="edge">
<title>customers&#45;&gt;Scope_5</title>
<path fill="none" stroke="black" d="M258.2,-305.11C287.04,-294.93 326.21,-281.1 356.1,-270.55"/>
<polygon fill="black" stroke="black" points="356.96,-273.95 365.22,-267.32 354.63,-267.35 356.96,-273.95"/>
</g>
</g>
</svg>
