<?xml version="1.0" encoding="UTF-8" standalone="no"?>
<!DOCTYPE svg PUBLIC "-//W3C//DTD SVG 1.1//EN"
 "http://www.w3.org/Graphics/SVG/1.1/DTD/svg11.dtd">
<!-- Generated by graphviz version 14.1.1 (20251213.1925)
 -->
<!-- Pages: 1 -->
<svg width="594pt" height="399pt"
 viewBox="0.00 0.00 594.00 399.00" xmlns="http://www.w3.org/2000/svg" xmlns:xlink="http://www.w3.org/1999/xlink">
<g id="graph0" class="graph" transform="scale(1 1) rotate(0) translate(4 395)">
<polygon fill="white" stroke="none" points="-4,4 -4,-395 589.75,-395 589.75,4 -4,4"/>
<!-- Scope_1 -->
<g id="node1" class="node">
<title>Scope_1</title>
<polygon fill="lightblue" stroke="none" points="362.5,-328 362.5,-350.5 415.75,-350.5 415.75,-328 362.5,-328"/>
<polygon fill="none" stroke="black" points="362.5,-328 362.5,-350.5 415.75,-350.5 415.75,-328 362.5,-328"/>
<text xml:space="preserve" text-anchor="start" x="365.5" y="-335.2" font-family="Times,serif" font-weight="bold" font-size="14.00">Scope_1</text>
<polygon fill="none" stroke="black" points="362.5,-305.5 362.5,-328 415.75,-328 415.75,-305.5 362.5,-305.5"/>
<text xml:space="preserve" text-anchor="start" x="365.5" y="-311.7" font-family="Times,serif" font-size="14.00">id</text>
</g>
<!-- u -->
<g id="node2" class="node">
<title>u</title>
<polygon fill="lightblue" stroke="none" points="540.75,-283.5 540.75,-306 576.75,-306 576.75,-283.5 540.75,-283.5"/>
<polygon fill="none" stroke="black" points="540.75,-283.5 540.75,-306 576.75,-306 576.75,-283.5 540.75,-283.5"/>
<text xml:space="preserve" text-anchor="start" x="555" y="-290.7" font-family="Times,serif" font-weight="bold" font-size="14.00">u</text>
<polygon fill="none" stroke="black" points="540.75,-261 540.75,-283.5 576.75,-283.5 576.75,-261 540.75,-261"/>
<text xml:space="preserve" text-anchor="start" x="543.75" y="-267.2" font-family="Times,serif" font-size="14.00">id</text>
<polygon fill="none" stroke="black" points="540.75,-238.5 540.75,-261 576.75,-261 576.75,-238.5 540.75,-238.5"/>
<text xml:space="preserve" text-anchor="start" x="543.75" y="-244.7" font-family="Times,serif" font-size="14.00">name</text>
<polygon fill="none" stroke="black" points="540.75,-216 540.75,-238.5 576.75,-238.5 576.75,-216 540.75,-216"/>
<text xml:space="preserve" text-anchor="start" x="543.75" y="-222.2" font-family="Times,serif" font-size="14.00">age</text>
</g>
<!-- Scope_1&#45;&gt;u -->
<g id="edge4" class="edge">
<title>Scope_1:id&#45;&gt;u:id</title>
<path fill="none" stroke="blue" d="M416.75,-316.75C470.91,-316.75 480.46,-278.13 528.52,-272.85"/>
<polygon fill="blue" stroke="blue" points="528.44,-276.35 538.24,-272.33 528.07,-269.36 528.44,-276.35"/>
</g>
<!-- u&#45;&gt;Scope_1 -->
<g id="edge1" class="edge">
<title>u&#45;&gt;Scope_1</title>
<path fill="none" stroke="black" d="M531.96,-271.31C505.97,-281.7 465.34,-297.94 434.22,-310.38"/>
<polygon fill="black" stroke="black" points="433.04,-307.08 425.05,-314.04 435.63,-313.58 433.04,-307.08"/>
</g>
<!-- Scope_2 -->
<g id="node3" class="node">
<title>Scope_2</title>
<polygon fill="lightblue" stroke="none" points="362.5,-238.5 362.5,-261 415.75,-261 415.75,-238.5 362.5,-238.5"/>
<polygon fill="none" stroke="black" points="362.5,-238.5 362.5,-261 415.75,-261 415.75,-238.5 362.5,-238.5"/>
<text xml:space="preserve" text-anchor="start" x="365.5" y="-245.7" font-family="Times,serif" font-weight="bold" font-size="14.00">Scope_2</text>
<polygon fill="none" stroke="black" points="362.5,-216 362.5,-238.5 415.75,-238.5 415.75,-216 362.5,-216"/>
<text xml:space="preserve" text-anchor="start" x="365.5" y="-222.2" font-family="Times,serif" font-size="14.00">id</text>
<polygon fill="none" stroke="black" points="362.5,-193.5 362.5,-216 415.75,-216 415.75,-193.5 362.5,-193.5"/>
<text xml:space="preserve" text-anchor="start" x="365.5" y="-199.7" font-family="Times,serif" font-size="14.00">name</text>
<polygon fill="none" stroke="black" points="362.5,-171 362.5,-193.5 415.75,-193.5 415.75,-171 362.5,-171"/>
<text xml:space="preserve" text-anchor="start" x="365.5" y="-177.2" font-family="Times,serif" font-size="14.00">age</text>
</g>
<!-- Scope_2&#45;&gt;u -->
<g id="edge2" class="edge">
<title>Scope_2&#45;&gt;u</title>
<path fill="none" stroke="black" d="M423.64,-225C451.81,-232.56 492.02,-243.35 521.05,-251.15"/>
<polygon fill="black" stroke="black" points="519.94,-254.47 530.5,-253.69 521.75,-247.71 519.94,-254.47"/>
</g>
<!-- Scope_3 -->
<g id="node4" class="node">
<title>Scope_3</title>
<polygon fill="lightblue" stroke="none" points="179.25,-364.5 179.25,-387 232.5,-387 232.5,-364.5 179.25,-364.5"/>
<polygon fill="none" stroke="black" points="179.25,-364.5 179.25,-387 232.5,-387 232.5,-364.5 179.25,-364.5"/>
<text xml:space="preserve" text-anchor="start" x="182.25" y="-371.7" font-family="Times,serif" font-weight="bold" font-size="14.00">Scope_3</text>
<polygon fill="none" stroke="black" points="179.25,-342 179.25,-364.5 232.5,-364.5 232.5,-342 179.25,-342"/>
<text xml:space="preserve" text-anchor="start" x="182.25" y="-348.2" font-family="Times,serif" font-size="14.00">id</text>
<polygon fill="none" stroke="black" points="179.25,-319.5 179.25,-342 232.5,-342 232.5,-319.5 179.25,-319.5"/>
<text xml:space="preserve" text-anchor="start" x="182.25" y="-325.7" font-family="Times,serif" font-size="14.00">name</text>
<polygon fill="none" stroke="black" points="179.25,-297 179.25,-319.5 232.5,-319.5 232.5,-297 179.25,-297"/>
<text xml:space="preserve" text-anchor="start" x="182.25" y="-303.2" font-family="Times,serif" font-size="14.00">age</text>
</g>
<!-- Scope_3&#45;&gt;Scope_2 -->
<g id="edge5" class="edge">
<title>Scope_3&#45;&gt;Scope_2</title>
<path fill="none" stroke="black" d="M240.12,-318.89C269.79,-298.26 313.4,-267.94 345.61,-245.56"/>
<polygon fill="black" stroke="black" points="347.33,-248.62 353.54,-240.04 343.33,-242.87 347.33,-248.62"/>
</g>
<!-- table1 -->
<g id="node5" class="node">
<title>table1</title>
<polygon fill="lightblue" stroke="none" points="8,-330.75 8,-353.25 49.25,-353.25 49.25,-330.75 8,-330.75"/>
<polygon fill="none" stroke="black" points="8,-330.75 8,-353.25 49.25,-353.25 49.25,-330.75 8,-330.75"/>
<text xml:space="preserve" text-anchor="start" x="11" y="-337.95" font-family="Times,serif" font-weight="bold" font-size="14.00">table1</text>
</g>
<!-- table1&#45;&gt;Scope_3 -->
<g id="edge7" class="edge">
<title>table1&#45;&gt;Scope_3</title>
<path fill="none" stroke="black" d="M57.01,-342C84.53,-342 127.42,-342 159.93,-342"/>
<polygon fill="black" stroke="black" points="159.88,-345.5 169.88,-342 159.88,-338.5 159.88,-345.5"/>
</g>
<!-- Scope_4 -->
<g id="node6" class="node">
<title>Scope_4</title>
<polygon fill="lightblue" stroke="none" points="179.25,-230.5 179.25,-253 232.5,-253 232.5,-230.5 179.25,-230.5"/>
<polygon fill="none" stroke="black" points="179.25,-230.5 179.25,-253 232.5,-253 232.5,-230.5 179.25,-230.5"/>
<text xml:space="preserve" text-anchor="start" x="182.25" y="-237.7" font-family="Times,serif" font-weight="bold" font-size="14.00">Scope_4</text>
<polygon fill="none" stroke="black" points="179.25,-208 179.25,-230.5 232.5,-230.5 232.5,-208 179.25,-208"/>
<text xml:space="preserve" text-anchor="start" x="182.25" y="-214.2" font-family="Times,serif" font-size="14.00">id</text>
<polygon fill="none" stroke="black" points="179.25,-185.5 179.25,-208 232.5,-208 232.5,-185.5 179.25,-185.5"/>
<text xml:space="preserve" text-anchor="start" x="182.25" y="-191.7" font-family="Times,serif" font-size="14.00">name</text>
<polygon fill="none" stroke="black" points="179.25,-163 179.25,-185.5 232.5,-185.5 232.5,-163 179.25,-163"/>
<text xml:space="preserve" text-anchor="start" x="182.25" y="-169.2" font-family="Times,serif" font-size="14.00">age</text>
</g>
<!-- Scope_4&#45;&gt;Scope_2 -->
<g id="edge6" class="edge">
<title>Scope_4&#45;&gt;Scope_2</title>
<path fill="none" stroke="black" d="M240.12,-209.47C269.15,-210.75 311.54,-212.62 343.52,-214.03"/>
<polygon fill="black" stroke="black" points="343.13,-217.52 353.27,-214.46 343.44,-210.52 343.13,-217.52"/>
</g>
<!-- table2 -->
<g id="node7" class="node">
<title>table2</title>
<polygon fill="lightblue" stroke="none" points="8,-196.75 8,-219.25 49.25,-219.25 49.25,-196.75 8,-196.75"/>
<polygon fill="none" stroke="black" points="8,-196.75 8,-219.25 49.25,-219.25 49.25,-196.75 8,-196.75"/>
<text xml:space="preserve" text-anchor="start" x="11" y="-203.95" font-family="Times,serif" font-weight="bold" font-size="14.00">table2</text>
</g>
<!-- table2&#45;&gt;Scope_4 -->
<g id="edge8" class="edge">
<title>table2&#45;&gt;Scope_4</title>
<path fill="none" stroke="black" d="M57.01,-208C84.53,-208 127.42,-208 159.93,-208"/>
<polygon fill="black" stroke="black" points="159.88,-211.5 169.88,-208 159.88,-204.5 159.88,-211.5"/>
</g>
<!-- Scope_5 -->
<g id="node8" class="node">
<title>Scope_5</title>
<polygon fill="lightblue" stroke="none" points="362.5,-104.5 362.5,-127 415.75,-127 415.75,-104.5 362.5,-104.5"/>
<polygon fill="none" stroke="black" points="362.5,-104.5 362.5,-127 415.75,-127 415.75,-104.5 362.5,-104.5"/>
<text xml:space="preserve" text-anchor="start" x="365.5" y="-111.7" font-family="Times,serif" font-weight="bold" font-size="14.00">Scope_5</text>
<polygon fill="none" stroke="black" points="362.5,-82 362.5,-104.5 415.75,-104.5 415.75,-82 362.5,-82"/>
<text xml:space="preserve" text-anchor="start" x="365.5" y="-88.2" font-family="Times,serif" font-size="14.00">id</text>
<polygon fill="none" stroke="black" points="362.5,-59.5 362.5,-82 415.75,-82 415.75,-59.5 362.5,-59.5"/>
<text xml:space="preserve" text-anchor="start" x="365.5" y="-65.7" font-family="Times,serif" font-size="14.00">name</text>
<polygon fill="none" stroke="black" points="362.5,-37 362.5,-59.5 415.75,-59.5 415.75,-37 362.5,-37"/>
<text xml:space="preserve" text-anchor="start" x="365.5" y="-43.2" font-family="Times,serif" font-size="14.00">age</text>
</g>
<!-- Scope_5&#45;&gt;u -->
<g id="edge3" class="edge">
<title>Scope_5&#45;&gt;u</title>
<path fill="none" stroke="black" d="M423.64,-117.79C452.94,-149.07 495.24,-194.24 524.46,-225.45"/>
<polygon fill="black" stroke="black" points="521.54,-227.45 530.93,-232.36 526.65,-222.67 521.54,-227.45"/>
</g>
<!-- orders -->
<g id="node9" class="node">
<title>orders</title>
<polygon fill="lightblue" stroke="none" points="184.12,-78.75 184.12,-101.25 227.62,-101.25 227.62,-78.75 184.12,-78.75"/>
<polygon fill="none" stroke="black" points="184.12,-78.75 184.12,-101.25 227.62,-101.25 227.62,-78.75 184.12,-78.75"/>
<text xml:space="preserve" text-anchor="start" x="187.12" y="-85.95" font-family="Times,serif" font-weight="bold" font-size="14.00">orders</text>
</g>
<!-- orders&#45;&gt;Scope_5 -->
<g id="edge9" class="edge">
<title>orders&#45;&gt;Scope_5</title>
<path fill="none" stroke="black" d="M235.59,-88.73C264.53,-87.46 309.58,-85.47 343.23,-83.98"/>
<polygon fill="black" stroke="black" points="343.27,-87.48 353.1,-83.55 342.96,-80.49 343.27,-87.48"/>
</g>
<!-- customers -->
<g id="node10" class="node">
<title>customers</title>
<polygon fill="lightblue" stroke="none" points="173.25,-6.75 173.25,-29.25 238.5,-29.25 238.5,-6.75 173.25,-6.75"/>
<polygon fill="none" stroke="black" points="173.25,-6.75 173.25,-29.25 238.5,-29.25 238.5,-6.75 173.25,-6.75"/>
<text xml:space="preserve" text-anchor="start" x="176.25" y="-13.95" font-family="Times,serif" font-weight="bold" font-size="14.00">customers</text>
</g>
<!-- customers&#45;&gt;Scope_5 -->
<g id="edge10" class="edge">
<title>customers&#45;&gt;Scope_5</title>
<path fill="none" stroke="black" d="M246.2,-31.89C275.04,-42.07 314.21,-55.9 344.1,-66.45"/>
<polygon fill="black" stroke="black" points="342.63,-69.65 353.22,-69.68 344.96,-63.05 342.63,-69.65"/>
</g>
</g>
</svg>
